<?xml version="1.0" encoding="UTF-8"?>
<svg version="1.1" xmlns="http://www.w3.org/2000/svg" width="1006" height="888">
<path d="M0 0 C0.84704918 -0.00145344 1.69409836 -0.00290688 2.5668157 -0.00440437 C5.43022706 -0.00807937 8.29358568 -0.00457101 11.15699673 -0.0011425 C13.22056097 -0.00229373 15.28412501 -0.00388126 17.34768862 -0.00586975 C23.03784176 -0.01006286 28.72797824 -0.00797245 34.41813147 -0.00488353 C40.54700977 -0.0026296 46.67588512 -0.006109 52.80476284 -0.00886345 C64.12358847 -0.01306226 75.44240727 -0.01268553 86.76123273 -0.00995198 C97.21599438 -0.00743941 107.67075406 -0.00677833 118.12551594 -0.00797462 C118.81819286 -0.00805101 119.51086978 -0.00812739 120.22453691 -0.00820609 C123.03611414 -0.00851742 125.84769137 -0.00883582 128.65926859 -0.00916586 C155.04911663 -0.01222681 181.43896127 -0.00944824 207.82880879 -0.00406896 C231.29208334 0.00067738 254.75535247 0.0002518 278.21862698 -0.00452995 C304.56079025 -0.00988043 330.90295052 -0.01201028 357.24511427 -0.00891769 C360.05134801 -0.00859696 362.85758175 -0.00828412 365.6638155 -0.00797462 C366.35481639 -0.00789555 367.04581728 -0.00781647 367.7577576 -0.007735 C378.20851658 -0.00659586 388.6592734 -0.00793088 399.11003208 -0.01045418 C410.98808704 -0.01330773 422.86613558 -0.01251409 434.74419028 -0.00717343 C440.81013578 -0.00453637 446.87607022 -0.00353145 452.94201565 -0.00682259 C458.48649216 -0.00978542 464.03094731 -0.00819295 469.57542186 -0.00284503 C471.58948614 -0.0017208 473.6035522 -0.00231217 475.61761535 -0.00472082 C478.33888878 -0.00772754 481.0600874 -0.00467742 483.78135681 0 C484.57741796 -0.00234117 485.37347911 -0.00468233 486.19366333 -0.00709444 C491.59945706 0.01169075 491.59945706 0.01169075 493.82775784 1.12584114 C495.37510727 1.32251664 496.92889193 1.46991211 498.48400784 1.59068489 C499.89553127 1.70766731 499.89553127 1.70766731 501.33557034 1.82701302 C503.29899964 1.98208805 505.26253876 2.13578036 507.22619534 2.28795052 C513.54443441 2.81447044 519.64085446 3.73751493 525.82775784 5.12584114 C525.82775784 5.78584114 525.82775784 6.44584114 525.82775784 7.12584114 C526.48002346 7.17482552 527.13228909 7.22380989 527.80432034 7.27427864 C532.76055636 7.69826343 537.15795235 8.28249687 541.82775784 10.12584114 C541.82775784 10.78584114 541.82775784 11.44584114 541.82775784 12.12584114 C542.83838284 12.22252083 543.84900784 12.31920052 544.89025784 12.41880989 C548.95918913 13.00315591 552.17667951 14.53537956 555.82775784 16.43834114 C556.43571194 16.75230843 557.04366604 17.06627571 557.67004299 17.38975716 C561.78580484 19.52926938 565.84220608 21.75348891 569.82775784 24.12584114 C569.82775784 24.78584114 569.82775784 25.44584114 569.82775784 26.12584114 C570.54963284 26.20834114 571.27150784 26.29084114 572.01525784 26.37584114 C575.42428039 27.28491382 577.1545896 28.85364814 579.82775784 31.12584114 C580.75588284 31.66209114 581.68400784 32.19834114 582.64025784 32.75084114 C583.36213284 33.20459114 584.08400784 33.65834114 584.82775784 34.12584114 C584.82775784 34.78584114 584.82775784 35.44584114 584.82775784 36.12584114 C587.30275784 37.11584114 587.30275784 37.11584114 589.82775784 38.12584114 C589.82775784 38.78584114 589.82775784 39.44584114 589.82775784 40.12584114 C590.44650784 40.43521614 591.06525784 40.74459114 591.70275784 41.06334114 C593.07775784 41.75084114 594.45275784 42.43834114 595.82775784 43.12584114 C595.82775784 43.78584114 595.82775784 44.44584114 595.82775784 45.12584114 C596.38978909 45.3643177 596.95182034 45.60279427 597.53088284 45.84849739 C600.33297197 47.40680206 602.30669191 49.30340789 604.57775784 51.56334114 C605.37697659 52.34580208 606.17619534 53.12826302 606.99963284 53.93443489 C608.82775784 56.12584114 608.82775784 56.12584114 608.82775784 59.12584114 C609.66307034 59.43521614 609.66307034 59.43521614 610.51525784 59.75084114 C613.82379015 61.71807657 615.54332063 64.01646828 617.82775784 67.12584114 C617.82775784 68.11584114 617.82775784 69.10584114 617.82775784 70.12584114 C618.81775784 70.45584114 619.80775784 70.78584114 620.82775784 71.12584114 C622.65197659 73.77818489 622.65197659 73.77818489 624.51525784 77.06334114 C625.13787502 78.14486458 625.76049221 79.22638802 626.40197659 80.34068489 C627.82775784 83.12584114 627.82775784 83.12584114 627.82775784 85.12584114 C628.48775784 85.12584114 629.14775784 85.12584114 629.82775784 85.12584114 C630.04689846 85.62470833 630.26603909 86.12357552 630.49182034 86.63755989 C632.07981619 90.23314401 633.68193238 93.81670605 635.35900784 97.37193489 C641.82775784 111.08631908 641.82775784 111.08631908 641.82775784 118.12584114 C642.48775784 118.12584114 643.14775784 118.12584114 643.82775784 118.12584114 C647.27194918 132.72265207 647.27194918 132.72265207 646.82775784 140.12584114 C647.48775784 140.12584114 648.14775784 140.12584114 648.82775784 140.12584114 C651.55589472 160.94070232 651.11486751 181.8770002 651.08920717 202.8238461 C651.08464146 208.34677248 651.09168666 213.86968667 651.09716702 219.39261055 C651.1060191 230.18410447 651.10415776 240.97557043 651.09834173 251.76706541 C651.09380868 260.54448129 651.09321942 269.32188939 651.09538937 278.09930611 C651.09569583 279.35276279 651.0960023 280.60621947 651.09631805 281.89765969 C651.09695756 284.44473485 651.09760599 286.99181002 651.09826323 289.53888518 C651.10379232 312.69508951 651.09807702 335.85127931 651.08757804 359.0074803 C651.07808849 380.09756053 651.07893781 401.18761659 651.08850002 422.27769661 C651.09923448 446.03201628 651.10340506 469.78632428 651.0972755 493.54064703 C651.09663846 496.07789008 651.09600971 498.61513312 651.09538937 501.15237617 C651.09508082 502.40046095 651.09477226 503.64854573 651.09445436 504.93445125 C651.09273391 513.69232774 651.09562845 522.4501956 651.10034847 531.20807076 C651.10598142 541.89384346 651.10439039 552.57958681 651.09378698 563.26535618 C651.0885626 568.70811713 651.08641779 574.1508293 651.09308529 579.59358978 C651.15188807 632.16286822 651.15188807 632.16286822 646.82775784 646.12584114 C646.27038182 648.4346051 645.72809606 650.74707717 645.20275784 653.06334114 C644.94236721 654.20673958 644.68197659 655.35013802 644.41369534 656.52818489 C644.22033596 657.38541145 644.02697659 658.24263802 643.82775784 659.12584114 C643.16775784 659.12584114 642.50775784 659.12584114 641.82775784 659.12584114 C641.72978909 660.2924427 641.63182034 661.45904427 641.53088284 662.66099739 C640.97443934 667.08238847 639.55475052 670.60206635 637.57775784 674.56334114 C637.26346828 675.21367317 636.94917873 675.8640052 636.62536526 676.53404427 C634.20282147 681.49893136 631.61204394 686.35415081 628.82775784 691.12584114 C628.05630941 692.47965749 627.28543397 693.83380059 626.51525784 695.18834114 C625.95838284 696.15771614 625.40150784 697.12709114 624.82775784 698.12584114 C624.16775784 698.12584114 623.50775784 698.12584114 622.82775784 698.12584114 C622.70400784 698.70334114 622.58025784 699.28084114 622.45275784 699.87584114 C621.81359217 702.17683755 621.03470147 704.06693729 619.82775784 706.12584114 C619.16775784 706.45584114 618.50775784 706.78584114 617.82775784 707.12584114 C617.33275784 707.97146614 616.83775784 708.81709114 616.32775784 709.68834114 C615.83275784 710.49271614 615.33775784 711.29709114 614.82775784 712.12584114 C614.16775784 712.12584114 613.50775784 712.12584114 612.82775784 712.12584114 C612.16775784 713.77584114 611.50775784 715.42584114 610.82775784 717.12584114 C610.16775784 717.12584114 609.50775784 717.12584114 608.82775784 717.12584114 C608.56801174 717.71010872 608.30826565 718.2943763 608.04064846 718.89634895 C606.74310183 721.28145278 605.33434661 722.87774751 603.42150784 724.79771614 C602.76021877 725.46158333 602.09892971 726.12545052 601.41760159 726.80943489 C600.72795315 727.49134895 600.03830471 728.17326302 599.32775784 728.87584114 C598.6381094 729.57322395 597.94846096 730.27060677 597.23791409 730.98912239 C596.57662502 731.64783333 595.91533596 732.30654427 595.23400784 732.98521614 C594.62879299 733.58817513 594.02357815 734.19113411 593.40002346 734.81236458 C591.82775784 736.12584114 591.82775784 736.12584114 589.82775784 736.12584114 C589.49775784 737.11584114 589.16775784 738.10584114 588.82775784 739.12584114 C587.4944245 739.45917447 586.16109117 739.79250781 584.82775784 740.12584114 C584.49775784 741.11584114 584.16775784 742.10584114 583.82775784 743.12584114 C580.76525784 744.31334114 580.76525784 744.31334114 577.82775784 745.12584114 C577.82775784 745.78584114 577.82775784 746.44584114 577.82775784 747.12584114 C574.92226901 749.16753599 573.42633738 750.12584114 569.82775784 750.12584114 C569.82775784 750.78584114 569.82775784 751.44584114 569.82775784 752.12584114 C564.20275784 755.12584114 564.20275784 755.12584114 560.82775784 755.12584114 C560.82775784 755.78584114 560.82775784 756.44584114 560.82775784 757.12584114 C557.83878569 758.48923194 554.84158658 759.81878279 551.82775784 761.12584114 C550.69080471 761.61955208 549.55385159 762.11326302 548.38244534 762.62193489 C540.99292498 765.74721667 533.88158425 768.02761155 525.94885159 769.48521614 C522.84936698 770.0485295 522.84936698 770.0485295 520.05627346 771.09776497 C508.66477926 774.72522883 496.11093264 774.47993183 484.26525784 774.68834114 C482.00247481 774.7326335 479.73981291 774.77942489 477.47718716 774.83114815 C475.44889521 774.87692525 473.42043038 774.91484929 471.39196682 774.95225716 C467.93774832 775.04425796 467.93774832 775.04425796 465.01629692 775.62882507 C461.70398863 776.14513376 458.59815967 776.25120257 455.24692345 776.25168228 C453.27421924 776.2555939 453.27421924 776.2555939 451.26166242 776.25958455 C449.80891687 776.25742266 448.35617145 776.25516601 446.90342617 776.25282478 C445.35501079 776.25397721 443.80659569 776.25556555 442.25818115 776.25755203 C438.00579272 776.26172861 433.75342671 776.25966218 429.50103819 776.25656581 C424.91409155 776.25430517 420.32714878 776.25779463 415.7402029 776.26054573 C406.75565009 776.26499517 397.77110562 776.26403065 388.78655248 776.26113309 C381.48601243 776.25887597 374.18547472 776.25856788 366.88493443 776.25965691 C365.84643051 776.25981014 364.8079266 776.25996337 363.73795288 776.26012125 C361.62835574 776.26044097 359.5187586 776.26076518 357.40916146 776.26109384 C337.62221402 776.26394618 317.83527121 776.26066539 298.04832453 776.25529347 C281.06309751 776.250825 264.07787732 776.2516022 247.09265041 776.25621223 C227.37561129 776.2615612 207.65857623 776.2636722 187.94153649 776.26059997 C185.83994615 776.26028142 183.73835582 776.25996705 181.63676548 776.25965691 C180.60269762 776.25950263 179.56862975 776.25934836 178.5032265 776.2591894 C171.20931255 776.25832527 163.91540117 776.2597849 156.62148762 776.26213646 C147.7358264 776.26493819 138.85017403 776.26418824 129.96451383 776.25885572 C125.429276 776.25622388 120.89405292 776.25520494 116.35881519 776.25850487 C112.20951766 776.26147837 108.06024859 776.25985733 103.91095365 776.25452732 C102.40768952 776.25340766 100.90442301 776.25398436 99.40116041 776.2564031 C97.36169228 776.2594336 95.32221744 776.25573432 93.28275108 776.25168228 C92.14874113 776.25151993 91.01473118 776.25135758 89.84635729 776.2511903 C86.82775784 776.12584114 86.82775784 776.12584114 83.98682076 775.55547607 C82.91808461 775.34280678 82.91808461 775.34280678 81.82775784 775.12584114 C81.49775784 775.45584114 81.16775784 775.78584114 80.82775784 776.12584114 C78.69634325 776.22536216 76.56159179 776.25383792 74.42785549 776.25523567 C73.75953197 776.25698799 73.09120846 776.25874031 72.40263271 776.26054573 C70.18233588 776.26496467 67.96211805 776.26202547 65.74182034 776.25865364 C64.20343924 776.25932683 62.66505824 776.26029698 61.12667751 776.26155281 C57.89681902 776.26302997 54.66698813 776.26087525 51.43713284 776.25621223 C47.2953289 776.25052448 43.1535899 776.25378777 39.01178837 776.2597847 C35.83252377 776.26339798 32.65327457 776.26224802 29.47400951 776.25965691 C27.94697341 776.25898927 26.4199359 776.25981038 24.89290142 776.26213646 C22.75737974 776.26467448 20.6219631 776.2608057 18.48644924 776.25523567 C17.27034969 776.25444008 16.05425014 776.25364449 14.8012991 776.25282478 C11.82775784 776.12584114 11.82775784 776.12584114 8.82775784 775.12584114 C7.11913272 775.06637211 5.40818332 775.06501053 3.69885159 775.09849739 C2.67227444 775.11219368 1.64569729 775.12588997 0.58801174 775.1400013 C-0.50849705 775.15595345 -1.60500584 775.17190559 -2.73474216 775.18834114 C-18.95104426 775.30708219 -35.72738842 774.48425979 -51.17224216 769.12584114 C-53.04576053 768.68203919 -54.92097891 768.24539141 -56.79724216 767.81334114 C-63.22802558 766.24996773 -69.14514676 763.829485 -75.17224216 761.12584114 C-75.17224216 760.46584114 -75.17224216 759.80584114 -75.17224216 759.12584114 C-76.12099216 758.98146614 -77.06974216 758.83709114 -78.04724216 758.68834114 C-81.17224216 758.12584114 -81.17224216 758.12584114 -83.17224216 757.12584114 C-83.17224216 756.46584114 -83.17224216 755.80584114 -83.17224216 755.12584114 C-83.72911716 755.00209114 -84.28599216 754.87834114 -84.85974216 754.75084114 C-87.39338581 754.06607259 -89.75145248 753.13450351 -92.17224216 752.12584114 C-92.17224216 751.46584114 -92.17224216 750.80584114 -92.17224216 750.12584114 C-92.95599216 749.81646614 -93.73974216 749.50709114 -94.54724216 749.18834114 C-97.17224216 748.12584114 -97.17224216 748.12584114 -99.17224216 747.12584114 C-99.17224216 746.46584114 -99.17224216 745.80584114 -99.17224216 745.12584114 C-100.14161716 744.85771614 -101.11099216 744.58959114 -102.10974216 744.31334114 C-103.62567966 743.72552864 -103.62567966 743.72552864 -105.17224216 743.12584114 C-105.66724216 741.64084114 -105.66724216 741.64084114 -106.17224216 740.12584114 C-107.83579006 739.45142983 -109.50291158 738.78580904 -111.17224216 738.12584114 C-112.54419791 736.83228287 -113.88406873 735.50285412 -115.17224216 734.12584114 C-115.83224216 733.79584114 -116.49224216 733.46584114 -117.17224216 733.12584114 C-117.17224216 732.46584114 -117.17224216 731.80584114 -117.17224216 731.12584114 C-117.81161716 730.85771614 -118.45099216 730.58959114 -119.10974216 730.31334114 C-121.17224216 729.12584114 -121.17224216 729.12584114 -122.17224216 726.12584114 C-122.77036716 725.83709114 -123.36849216 725.54834114 -123.98474216 725.25084114 C-126.91788159 723.74236944 -128.184495 721.75668297 -130.17224216 719.12584114 C-131.77052352 717.29923387 -133.38091354 715.4844778 -135.00036716 713.67662239 C-136.17224216 712.12584114 -136.17224216 712.12584114 -136.17224216 710.12584114 C-136.83224216 710.12584114 -137.49224216 710.12584114 -138.17224216 710.12584114 C-141.17224216 705.74122576 -141.17224216 705.74122576 -141.17224216 703.12584114 C-141.83224216 703.12584114 -142.49224216 703.12584114 -143.17224216 703.12584114 C-146.17224216 697.37584114 -146.17224216 697.37584114 -146.17224216 695.12584114 C-146.83224216 695.12584114 -147.49224216 695.12584114 -148.17224216 695.12584114 C-149.16224216 692.15584114 -150.15224216 689.18584114 -151.17224216 686.12584114 C-151.83224216 686.12584114 -152.49224216 686.12584114 -153.17224216 686.12584114 C-154.16235659 683.9427448 -155.13929784 681.75516848 -156.10974216 679.56334114 C-156.38753513 678.95425911 -156.6653281 678.34517708 -156.95153904 677.71763802 C-158.80816 673.48991078 -159.70489295 669.72242772 -160.17224216 665.12584114 C-160.83224216 665.12584114 -161.49224216 665.12584114 -162.17224216 665.12584114 C-162.4493906 663.9824427 -162.72653904 662.83904427 -163.01208591 661.66099739 C-163.37778595 660.17006649 -163.74368146 658.67918353 -164.10974216 657.18834114 C-164.38334568 656.056222 -164.38334568 656.056222 -164.66247654 654.90123177 C-165.31063396 651.21304293 -165.31063396 651.21304293 -167.17224216 648.12584114 C-169.33814601 639.20741353 -169.78061773 629.90432589 -170.4747324 620.78550911 C-170.58990208 619.32395393 -170.58990208 619.32395393 -170.70739841 617.83287239 C-170.77322117 616.95091194 -170.83904392 616.06895149 -170.90686131 615.16026497 C-170.96093969 613.1339094 -170.96093969 613.1339094 -172.17224216 612.12584114 C-172.27187688 609.7822427 -172.30587853 607.46807996 -172.29808331 605.12391281 C-172.29953675 604.37908496 -172.30099019 603.63425711 -172.30248767 602.86685872 C-172.30617411 600.33912213 -172.3026491 597.81144485 -172.29922581 595.28370857 C-172.30037659 593.46594632 -172.30196382 591.64818429 -172.30395305 589.83042276 C-172.30815238 584.81037365 -172.30605297 579.79034339 -172.30296683 574.77029419 C-172.30071536 569.36597626 -172.3041911 563.96166171 -172.30694675 558.55734444 C-172.31140635 547.95985704 -172.31042709 537.3623767 -172.30753411 526.76488902 C-172.30528058 518.1550969 -172.30496734 509.54530677 -172.30605793 500.93551445 C-172.30621116 499.7125818 -172.3063644 498.48964915 -172.30652227 497.22965794 C-172.30684198 494.74567967 -172.30716619 492.26170139 -172.30749486 489.77772312 C-172.31035027 466.45422013 -172.30706181 443.13072106 -172.3016945 419.80721872 C-172.29722752 399.77572882 -172.2980014 379.74424502 -172.30261326 359.7127552 C-172.30795988 336.47882567 -172.31007439 313.24489958 -172.30700099 290.01096952 C-172.30668243 287.53524613 -172.30636806 285.05952275 -172.30605793 282.58379936 C-172.30590365 281.36554386 -172.30574938 280.14728835 -172.30559043 278.89211602 C-172.30472545 270.28936585 -172.30618776 261.68661786 -172.30853748 253.08386803 C-172.3113367 242.60456061 -172.31059468 232.1252607 -172.30525674 221.64595415 C-172.30262121 216.29481723 -172.30161216 210.94369283 -172.30490589 205.592556 C-172.30787194 200.69991199 -172.30627082 195.80729216 -172.30092834 190.91465037 C-172.29980547 189.13873039 -172.30039248 187.36280839 -172.30280413 185.5868897 C-172.30581796 183.18438079 -172.30275327 180.78195616 -172.29808331 178.37945175 C-172.30042447 177.6801023 -172.30276564 176.98075285 -172.30517775 176.26021099 C-172.2934219 173.26141197 -172.12947425 170.9975374 -171.17224216 168.12584114 C-171.01375592 165.31124285 -170.895031 162.50499889 -170.79724216 159.68834114 C-170.48199827 152.56437974 -169.83669045 145.55614641 -168.79724216 138.50084114 C-168.68332127 137.69719124 -168.56940037 136.89354134 -168.45202732 136.06553841 C-167.58961841 130.51514835 -166.06180689 125.4058926 -164.17224216 120.12584114 C-163.6894084 118.66871782 -163.20979379 117.21052013 -162.73474216 115.75084114 C-161.25541293 111.30502631 -159.65565645 106.90629395 -158.03942966 102.50865364 C-157.38993731 100.72401248 -156.77280726 98.92753644 -156.17224216 97.12584114 C-155.51224216 97.12584114 -154.85224216 97.12584114 -154.17224216 97.12584114 C-154.07298435 96.25572395 -153.97372654 95.38560677 -153.87146091 94.48912239 C-153.11523975 90.85165632 -151.90497623 88.47981983 -149.98474216 85.31334114 C-149.03728123 83.7471302 -149.03728123 83.7471302 -148.07067966 82.14927864 C-145.98159934 78.82222479 -143.85535159 75.53097623 -141.64099216 72.28599739 C-140.62124739 70.78621319 -139.62260888 69.27194658 -138.64099216 67.74693489 C-135.81375834 63.36904986 -132.97256224 59.731273 -129.17224216 56.12584114 C-128.2655994 55.03053283 -127.36981487 53.92615186 -126.48474216 52.81334114 C-125.34005466 51.48302864 -125.34005466 51.48302864 -124.17224216 50.12584114 C-123.51224216 50.12584114 -122.85224216 50.12584114 -122.17224216 50.12584114 C-121.90411716 49.48646614 -121.63599216 48.84709114 -121.35974216 48.18834114 C-120.17224216 46.12584114 -120.17224216 46.12584114 -117.17224216 45.12584114 C-117.17224216 44.46584114 -117.17224216 43.80584114 -117.17224216 43.12584114 C-115.52152821 42.09972165 -113.8525421 41.10275971 -112.17224216 40.12584114 C-111.16464174 39.13349977 -110.16502223 38.13300932 -109.17224216 37.12584114 C-106.92022047 35.33450024 -104.57393763 33.67617824 -102.23474216 32.00084114 C-101.30371677 31.31828255 -101.30371677 31.31828255 -100.35388279 30.62193489 C-97.31779632 28.44267793 -94.83121143 26.86910824 -91.17224216 26.12584114 C-91.17224216 25.46584114 -91.17224216 24.80584114 -91.17224216 24.12584114 C-90.65274998 23.87189583 -90.13325779 23.61795052 -89.59802341 23.35630989 C-86.44481836 21.80010703 -83.39240851 20.265947 -80.42224216 18.37584114 C-78.17224216 17.12584114 -78.17224216 17.12584114 -74.17224216 17.12584114 C-74.17224216 16.46584114 -74.17224216 15.80584114 -74.17224216 15.12584114 C-66.42634473 11.89577055 -58.80636579 8.77974839 -50.63708591 6.76646614 C-48.08045959 6.1386353 -48.08045959 6.1386353 -45.29333591 5.11412239 C-35.5010145 2.01342487 -24.64913992 1.86247643 -14.43786716 1.37193489 C-9.51435178 1.00090443 -5.03140919 -0.01484071 0 0 Z " fill="#FCFAF6" transform="translate(262.1722421646118,55.87415885925293)"/>
<path d="M0 0 C0.82809199 -0.00230769 1.65618398 -0.00461538 2.50936967 -0.006993 C5.27822977 -0.01227772 8.04685626 -0.0033216 10.81570435 0.00558662 C12.82313752 0.00471425 14.83057047 0.00296267 16.8380022 0.00040829 C22.3497199 -0.00406287 27.86135983 0.00393534 33.37306762 0.01396441 C39.31844946 0.02259989 45.26382691 0.01967868 51.20921326 0.01815987 C61.5085041 0.01711108 71.8077714 0.0233172 82.10705566 0.03463554 C92.90753296 0.04647422 103.70800015 0.05416837 114.50848389 0.05634117 C115.18031216 0.05647865 115.85214043 0.05661613 116.54432713 0.05675778 C119.95627724 0.05743445 123.36822735 0.05803722 126.78017747 0.05861153 C150.9398131 0.06281107 175.09943553 0.07628222 199.25906372 0.09521675 C222.72813853 0.11358884 246.19720972 0.12775449 269.66629028 0.13623238 C270.75163765 0.13662695 270.75163765 0.13662695 271.85891122 0.1370295 C279.12532319 0.13966657 286.3917352 0.14221819 293.65814723 0.14470722 C308.46034094 0.14977949 323.26253442 0.155422 338.06472778 0.16140938 C338.74529159 0.16168396 339.4258554 0.16195854 340.12704235 0.16224144 C385.56509801 0.18063921 431.00314603 0.21237083 476.44119263 0.24609566 C476.44119263 0.90609566 476.44119263 1.56609566 476.44119263 2.24609566 C477.41056763 2.18422066 478.37994263 2.12234566 479.37869263 2.05859566 C486.96712736 2.13417768 493.18600306 5.47812153 499.69119263 9.12109566 C500.28166382 9.44851753 500.87213501 9.77593941 501.48049927 10.11328316 C512.3999733 16.43857882 518.66414538 26.91509411 523.44119263 38.24609566 C524.14040948 41.05931903 524.3830467 43.33879932 524.44119263 46.24609566 C525.10119263 46.24609566 525.76119263 46.24609566 526.44119263 46.24609566 C526.55570941 100.48136771 526.64377778 154.71662751 526.69651927 208.95199674 C526.70277259 215.35919332 526.70924422 221.76638967 526.71585083 228.17358589 C526.71716238 229.44910974 526.71847393 230.72463358 526.71982523 232.03880966 C526.74156456 252.67498111 526.78097801 273.3110827 526.82695661 293.94721275 C526.87376216 315.13163295 526.9014967 336.31601665 526.9116351 357.50048643 C526.91848573 370.56586518 526.94010023 383.63104646 526.98077496 396.69636441 C527.00726389 405.6633457 527.01517969 414.63022534 527.00869951 423.59724288 C527.00550622 428.76593935 527.0103008 433.93429147 527.03722 439.10292625 C527.06173788 443.84539782 527.06266126 448.58729686 527.0456871 453.32979602 C527.04359248 455.03534782 527.04977718 456.74093688 527.06560854 458.44641649 C527.16821396 470.19364432 525.31159942 480.14796374 521.44119263 491.24609566 C520.78119263 491.24609566 520.12119263 491.24609566 519.44119263 491.24609566 C519.20013794 492.13168159 518.95908325 493.01726753 518.71072388 493.92968941 C517.33014964 497.53617411 515.76412099 499.51371281 513.12869263 502.30859566 C512.32689575 503.16324409 511.52509888 504.01789253 510.69900513 504.89843941 C509.953927 505.67316597 509.20884888 506.44789253 508.44119263 507.24609566 C507.63295044 508.11427925 507.63295044 508.11427925 506.80838013 509.00000191 C505.73367153 510.12941125 504.59477891 511.19738086 503.44119263 512.24609566 C502.78119263 512.24609566 502.12119263 512.24609566 501.44119263 512.24609566 C501.44119263 512.90609566 501.44119263 513.56609566 501.44119263 514.24609566 C500.02893336 514.92204881 498.61116358 515.58649625 497.19119263 516.24609566 C496.40228638 516.61734566 495.61338013 516.98859566 494.80056763 517.37109566 C492.44119263 518.24609566 492.44119263 518.24609566 488.44119263 518.24609566 C488.44119263 518.90609566 488.44119263 519.56609566 488.44119263 520.24609566 C483.11541182 522.01200018 478.50948259 522.53326234 472.91960049 522.50336456 C472.0833497 522.50687064 471.24709891 522.51037671 470.3855072 522.51398903 C467.58274902 522.52329444 464.78019902 522.51838189 461.97743225 522.51352119 C459.94784026 522.5172579 457.91824971 522.5218595 455.88866144 522.52725184 C450.31051312 522.53949504 444.7324247 522.5392198 439.154266 522.53686309 C433.13837738 522.53645525 427.12250806 522.54749103 421.10662842 522.55697823 C409.31914143 522.57359714 397.53166941 522.57911412 385.74417316 522.58020298 C376.16159987 522.58112237 366.57903305 522.58524065 356.99646187 522.59160423 C354.23721157 522.59339936 351.47796127 522.59517899 348.71871096 522.59695399 C348.03272754 522.59739608 347.34674411 522.59783818 346.63997332 522.59829367 C327.3446459 522.61060187 308.04932073 522.61849484 288.75398922 522.61760712 C287.66283681 522.61756038 287.66283681 522.61756038 286.54964092 522.6175127 C282.86278939 522.61734649 279.17593786 522.61714841 275.48908632 522.61694328 C274.75688021 522.61690339 274.02467409 522.6168635 273.27027992 522.6168224 C271.78957954 522.61674153 270.30887917 522.61665793 268.82817879 522.61657162 C245.80047649 522.61534662 222.77283314 522.63034998 199.74514771 522.65771675 C173.86575407 522.68845999 147.98639915 522.70564783 122.10698611 522.70379031 C119.34553532 522.70364105 116.58408453 522.70354363 113.82263374 522.70348167 C113.14270998 522.70345837 112.46278622 522.70343506 111.76225871 522.70341104 C100.83519771 522.70334958 89.90818799 522.71610461 78.98114222 522.7333462 C67.99137963 522.7503276 57.00168249 522.75191485 46.01191246 522.73912756 C40.06185389 522.73260018 34.11198054 522.73247265 28.16193962 522.74983406 C22.70941032 522.76557985 17.2572129 522.76268542 11.80469162 522.7452658 C9.83763773 522.74219922 7.87055897 522.74581526 5.9035344 522.75698595 C-7.84981302 522.82988525 -20.71892217 522.13935246 -32.55880737 514.24609566 C-32.55880737 513.58609566 -32.55880737 512.92609566 -32.55880737 512.24609566 C-33.09505737 511.99859566 -33.63130737 511.75109566 -34.18380737 511.49609566 C-38.73781242 509.0992509 -42.85988787 506.74429483 -45.55880737 502.24609566 C-45.55880737 501.58609566 -45.55880737 500.92609566 -45.55880737 500.24609566 C-46.54880737 499.91609566 -47.53880737 499.58609566 -48.55880737 499.24609566 C-49.94552612 497.25000191 -49.94552612 497.25000191 -51.24630737 494.80859566 C-51.90179565 493.60396675 -51.90179565 493.60396675 -52.57052612 492.37500191 C-53.55880737 490.24609566 -53.55880737 490.24609566 -53.55880737 488.24609566 C-54.21880737 488.24609566 -54.87880737 488.24609566 -55.55880737 488.24609566 C-58.41315685 477.43799018 -58.98746342 467.47371934 -58.9397583 456.3745594 C-58.94322157 454.60347338 -58.9479906 452.83238953 -58.95394003 451.06131011 C-58.96638716 446.23038336 -58.96030854 441.39963591 -58.95098138 436.56870878 C-58.94416556 431.34513638 -58.95468446 426.1215938 -58.96292114 420.89802742 C-58.97623232 410.68062602 -58.97339282 400.46329089 -58.96468322 390.24588694 C-58.95789863 381.94203979 -58.9569933 373.63821116 -58.96025467 365.33436203 C-58.96071437 364.15100278 -58.96117407 362.96764354 -58.9616477 361.74842492 C-58.9626069 359.34426197 -58.96357954 356.94009903 -58.96456547 354.53593609 C-58.97311122 332.01574586 -58.96329706 309.49559233 -58.94716437 286.97540811 C-58.93375324 267.65603236 -58.93609742 248.33671068 -58.94992065 229.01733589 C-58.96597588 206.56808562 -58.97229646 184.11886744 -58.96308386 161.66961223 C-58.96212823 159.27599164 -58.96118512 156.88237105 -58.96025467 154.48875046 C-58.95979184 153.3111075 -58.95932902 152.13346454 -58.95885216 150.92013543 C-58.95626276 142.62461827 -58.96063204 134.32912149 -58.96769333 126.03360748 C-58.97610748 115.92696324 -58.97382955 105.82038889 -58.9578511 95.71375265 C-58.94996865 90.55819787 -58.94687656 85.40275964 -58.95679855 80.24720573 C-58.96574581 75.52678296 -58.96081201 70.80658466 -58.9448659 66.08618221 C-58.94151836 64.37985921 -58.94321156 62.67351719 -58.95049326 60.96720644 C-58.9836183 52.55936141 -58.92677829 45.11378739 -55.55880737 37.24609566 C-55.24556519 36.37855659 -54.932323 35.51101753 -54.60958862 34.61718941 C-54.36595581 33.97910347 -54.122323 33.34101753 -53.87130737 32.68359566 C-53.43818237 31.54922066 -53.00505737 30.41484566 -52.55880737 29.24609566 C-51.89880737 29.24609566 -51.23880737 29.24609566 -50.55880737 29.24609566 C-50.46083862 28.66730659 -50.36286987 28.08851753 -50.26193237 27.49218941 C-49.41686659 24.7926737 -48.20811812 23.39370854 -46.30880737 21.30859566 C-45.67845581 20.61508003 -45.04810425 19.92156441 -44.39865112 19.20703316 C-34.9470494 9.13335149 -34.9470494 9.13335149 -28.55880737 8.24609566 C-28.55880737 7.58609566 -28.55880737 6.92609566 -28.55880737 6.24609566 C-26.72683475 5.61711839 -24.89314684 4.99313652 -23.05880737 4.37109566 C-22.03786987 4.02304878 -21.01693237 3.67500191 -19.96505737 3.31640816 C-13.09592091 1.15798684 -7.16883141 -0.04974992 0 0 Z " fill="#FBA001" transform="translate(268.5588073730469,181.75390434265137)"/>
<path d="M0 0 C0.82809199 -0.00230769 1.65618398 -0.00461538 2.50936967 -0.006993 C5.27822977 -0.01227772 8.04685626 -0.0033216 10.81570435 0.00558662 C12.82313752 0.00471425 14.83057047 0.00296267 16.8380022 0.00040829 C22.3497199 -0.00406287 27.86135983 0.00393534 33.37306762 0.01396441 C39.31844946 0.02259989 45.26382691 0.01967868 51.20921326 0.01815987 C61.5085041 0.01711108 71.8077714 0.0233172 82.10705566 0.03463554 C92.90753296 0.04647422 103.70800015 0.05416837 114.50848389 0.05634117 C115.18031216 0.05647865 115.85214043 0.05661613 116.54432713 0.05675778 C119.95627724 0.05743445 123.36822735 0.05803722 126.78017747 0.05861153 C150.9398131 0.06281107 175.09943553 0.07628222 199.25906372 0.09521675 C222.72813853 0.11358884 246.19720972 0.12775449 269.66629028 0.13623238 C270.75163765 0.13662695 270.75163765 0.13662695 271.85891122 0.1370295 C279.12532319 0.13966657 286.3917352 0.14221819 293.65814723 0.14470722 C308.46034094 0.14977949 323.26253442 0.155422 338.06472778 0.16140938 C338.74529159 0.16168396 339.4258554 0.16195854 340.12704235 0.16224144 C385.56509801 0.18063921 431.00314603 0.21237083 476.44119263 0.24609566 C476.44119263 0.90609566 476.44119263 1.56609566 476.44119263 2.24609566 C477.41056763 2.18422066 478.37994263 2.12234566 479.37869263 2.05859566 C486.96712736 2.13417768 493.18600306 5.47812153 499.69119263 9.12109566 C500.28166382 9.44851753 500.87213501 9.77593941 501.48049927 10.11328316 C509.92419268 15.00443974 515.83901671 22.46462605 520.12869263 31.12109566 C520.71005981 32.27351753 521.291427 33.42593941 521.89041138 34.61328316 C525.32374648 42.65610846 525.93969383 50.1401913 526.12869263 58.80859566 C526.22827271 60.45505074 526.22827271 60.45505074 526.3298645 62.13476753 C526.47723321 70.02137036 526.47723321 70.02137036 523.6086731 73.41235542 C521.30105786 75.21313073 518.94982855 76.74132785 516.44119263 78.24609566 C515.33932723 79.06838097 514.24880462 79.90631157 513.17556763 80.76562691 C511.63008602 81.95305845 510.0846025 83.1404875 508.53909302 84.32788277 C507.9769812 84.75979927 507.41486938 85.19171577 506.83572388 85.63672066 C506.27449829 86.06791206 505.71327271 86.49910347 505.13504028 86.94336128 C503.46882778 88.22484153 501.80434375 89.50853163 500.14041138 90.79297066 C492.95257703 96.33876127 485.71459917 101.81271646 478.44119263 107.24609566 C475.54050587 109.4206187 472.64080173 111.59643888 469.74197388 113.77343941 C467.24429048 115.6472839 464.74001953 117.51210533 462.23416138 119.37500191 C461.51260864 119.91278267 460.79105591 120.45056343 460.04763794 121.00464058 C458.62787241 122.06275265 457.20670042 123.11898079 455.78396606 124.17309761 C455.13331177 124.65867134 454.48265747 125.14424507 453.81228638 125.64453316 C453.23406128 126.07427437 452.65583618 126.50401558 452.06008911 126.94677925 C450.40797249 128.22350156 450.40797249 128.22350156 448.93582153 129.75805855 C447.42918647 131.25804887 445.89619553 132.43861781 444.15603638 133.65625191 C443.54308716 134.08873238 442.93013794 134.52121284 442.2986145 134.96679878 C441.66504028 135.40959175 441.03146606 135.85238472 440.37869263 136.30859566 C435.70138639 139.51930425 435.70138639 139.51930425 431.44119263 143.24609566 C430.12119263 143.24609566 428.80119263 143.24609566 427.44119263 143.24609566 C427.38060669 143.82359566 427.32002075 144.40109566 427.25759888 144.99609566 C426.08490073 148.2280293 424.16638879 149.26506797 421.37869263 151.24609566 C420.285875 152.03594897 419.19344786 152.82634275 418.10134888 153.61718941 C417.21793823 154.24923286 417.21793823 154.24923286 416.31668091 154.89404488 C412.95008573 157.32104359 409.6352743 159.8172259 406.31619263 162.30859566 C405.6322644 162.8205146 404.94833618 163.33243355 404.24368286 163.85986519 C399.6332255 167.32034323 395.10575616 170.86900376 390.62478638 174.49609566 C386.35262305 177.91994033 381.99661207 181.20914936 377.44119263 184.24609566 C376.23692426 185.19942475 375.04379485 186.16691249 373.85916138 187.14453316 C373.17402466 187.70656441 372.48888794 188.26859566 371.7829895 188.84765816 C370.35760976 190.0210442 368.93311596 191.19550735 367.509552 192.37109566 C356.67921524 201.24609566 356.67921524 201.24609566 353.44119263 201.24609566 C353.44119263 201.90609566 353.44119263 202.56609566 353.44119263 203.24609566 C351.74308509 204.62507609 349.98083804 205.92569044 348.19119263 207.18359566 C347.21666138 207.87324409 346.24213013 208.56289253 345.23806763 209.27343941 C344.31509888 209.92441597 343.39213013 210.57539253 342.44119263 211.24609566 C341.70384888 211.82488472 340.96650513 212.40367378 340.20681763 213.00000191 C338.44119263 214.24609566 338.44119263 214.24609566 336.44119263 214.24609566 C336.44119263 214.90609566 336.44119263 215.56609566 336.44119263 216.24609566 C331.02942792 220.24609566 331.02942792 220.24609566 328.44119263 220.24609566 C328.11119263 221.23609566 327.78119263 222.22609566 327.44119263 223.24609566 C325.70706177 224.74829292 325.70706177 224.74829292 323.47634888 226.31250191 C322.6764856 226.88033394 321.87662231 227.44816597 321.05252075 228.03320503 C320.21140747 228.61908394 319.37029419 229.20496284 318.50369263 229.80859566 C316.84768789 230.97506551 315.19269235 232.14296979 313.53884888 233.31250191 C312.80158569 233.82756294 312.06432251 234.34262398 311.30471802 234.87329292 C309.33443115 236.25291323 309.33443115 236.25291323 307.44119263 238.24609566 C306.12119263 238.24609566 304.80119263 238.24609566 303.44119263 238.24609566 C303.44119263 239.23609566 303.44119263 240.22609566 303.44119263 241.24609566 C301.44263395 243.09886282 299.48098223 244.73264594 297.31619263 246.37109566 C296.68672729 246.85465523 296.05726196 247.3382148 295.40872192 247.83642769 C278.79899483 260.42124392 260.75868929 270.40599727 239.44119263 271.24609566 C237.78410278 271.32343941 237.78410278 271.32343941 236.09353638 271.40234566 C223.97841331 271.70303124 212.66985626 269.90705037 201.44119263 265.24609566 C200.11284031 264.89343575 198.78031605 264.55534856 197.44119263 264.24609566 C197.44119263 263.58609566 197.44119263 262.92609566 197.44119263 262.24609566 C196.11474731 261.84390816 196.11474731 261.84390816 194.76150513 261.43359566 C185.70164125 258.19336199 178.34259376 251.70768909 171.16775513 245.48047066 C168.52190754 243.19405536 168.52190754 243.19405536 165.58963013 241.57422066 C164.88064575 241.13593941 164.17166138 240.69765816 163.44119263 240.24609566 C163.44119263 239.58609566 163.44119263 238.92609566 163.44119263 238.24609566 C162.45119263 238.24609566 161.46119263 238.24609566 160.44119263 238.24609566 C159.02713013 236.96875191 159.02713013 236.96875191 157.44119263 235.24609566 C150.57985949 229.51065695 143.42750302 224.12079043 136.32595825 218.68799019 C134.25414398 217.1029986 132.18360855 215.51634401 130.11306763 213.92968941 C128.61835514 212.78505475 127.12356429 211.64052242 125.62869263 210.49609566 C124.93574097 209.96540474 124.24278931 209.43471382 123.52883911 208.88794136 C121.50183126 207.33773416 119.47239475 205.79080271 117.44119263 204.24609566 C116.70852173 203.68857613 115.97585083 203.13105659 115.22097778 202.55664253 C114.50603149 202.01588081 113.79108521 201.47511909 113.05447388 200.91797066 C112.4090564 200.4290937 111.76363892 199.94021675 111.09866333 199.43652534 C109.44270149 198.18079553 109.44270149 198.18079553 107.44119263 197.24609566 C107.44119263 196.58609566 107.44119263 195.92609566 107.44119263 195.24609566 C106.73994263 195.01922066 106.03869263 194.79234566 105.31619263 194.55859566 C101.69990728 192.90768278 99.35349286 190.95521216 96.44119263 188.24609566 C96.44119263 187.58609566 96.44119263 186.92609566 96.44119263 186.24609566 C95.89720825 186.16359566 95.35322388 186.08109566 94.79275513 185.99609566 C91.63131492 184.98779579 89.45915571 183.24078478 86.81619263 181.24609566 C83.27220733 178.51427739 83.27220733 178.51427739 79.44119263 176.24609566 C79.44119263 175.58609566 79.44119263 174.92609566 79.44119263 174.24609566 C78.76056763 174.03984566 78.07994263 173.83359566 77.37869263 173.62109566 C74.31945019 172.18910983 72.14791839 170.37617003 69.64041138 168.14062691 C59.7526302 159.62273371 48.93674258 151.68806972 38.19119263 144.30859566 C37.28369263 143.62797066 36.37619263 142.94734566 35.44119263 142.24609566 C35.44119263 141.58609566 35.44119263 140.92609566 35.44119263 140.24609566 C34.55500244 140.07630196 34.55500244 140.07630196 33.65090942 139.90307808 C31.25547783 139.19087982 29.9927312 138.32638873 28.08572388 136.73437691 C27.46794067 136.22688911 26.85015747 135.71940132 26.21365356 135.19653511 C25.56686646 134.65601509 24.92007935 134.11549507 24.25369263 133.55859566 C18.15872693 128.5584712 18.15872693 128.5584712 11.69119263 124.05859566 C8.50282893 122.01311968 5.60269997 119.79583537 2.69119263 117.37109566 C-2.90177458 112.71825684 -8.65131735 108.28561036 -14.43380737 103.87109566 C-15.35000854 103.16871773 -16.26620972 102.4663398 -17.21017456 101.74267769 C-18.08577026 101.07607124 -18.96136597 100.4094648 -19.86349487 99.72265816 C-20.64708374 99.12533882 -21.43067261 98.52801949 -22.23800659 97.91259956 C-24.57231331 96.16521008 -24.57231331 96.16521008 -27.3522644 94.7163105 C-28.08042358 94.2311396 -28.80858276 93.7459687 -29.55880737 93.24609566 C-29.55880737 92.25609566 -29.55880737 91.26609566 -29.55880737 90.24609566 C-30.3863855 90.11267769 -30.3863855 90.11267769 -31.23068237 89.97656441 C-34.25078552 89.02898171 -36.27865296 87.45621147 -38.80880737 85.55859566 C-39.76915894 84.84058784 -40.7295105 84.12258003 -41.71896362 83.38281441 C-42.65611206 82.67769722 -43.5932605 81.97258003 -44.55880737 81.24609566 C-45.38251831 80.65441597 -46.20622925 80.06273628 -47.05490112 79.45312691 C-47.77806519 78.93105659 -48.50122925 78.40898628 -49.24630737 77.87109566 C-49.88954956 77.40961128 -50.53279175 76.94812691 -51.19552612 76.47265816 C-51.64540894 76.06789253 -52.09529175 75.66312691 -52.55880737 75.24609566 C-52.55880737 74.58609566 -52.55880737 73.92609566 -52.55880737 73.24609566 C-53.48693237 72.78203316 -53.48693237 72.78203316 -54.43380737 72.30859566 C-55.80880737 71.62109566 -57.18380737 70.93359566 -58.55880737 70.24609566 C-58.64689938 66.43374462 -58.69956227 62.62166013 -58.74630737 58.80859566 C-58.77144409 57.73931831 -58.79658081 56.67004097 -58.82247925 55.56836128 C-58.88422489 48.83808637 -58.13731191 43.46088971 -55.55880737 37.24609566 C-55.24556519 36.37855659 -54.932323 35.51101753 -54.60958862 34.61718941 C-54.36595581 33.97910347 -54.122323 33.34101753 -53.87130737 32.68359566 C-53.43818237 31.54922066 -53.00505737 30.41484566 -52.55880737 29.24609566 C-51.89880737 29.24609566 -51.23880737 29.24609566 -50.55880737 29.24609566 C-50.46083862 28.66730659 -50.36286987 28.08851753 -50.26193237 27.49218941 C-49.41686659 24.7926737 -48.20811812 23.39370854 -46.30880737 21.30859566 C-45.67845581 20.61508003 -45.04810425 19.92156441 -44.39865112 19.20703316 C-34.9470494 9.13335149 -34.9470494 9.13335149 -28.55880737 8.24609566 C-28.55880737 7.58609566 -28.55880737 6.92609566 -28.55880737 6.24609566 C-26.72683475 5.61711839 -24.89314684 4.99313652 -23.05880737 4.37109566 C-22.03786987 4.02304878 -21.01693237 3.67500191 -19.96505737 3.31640816 C-13.09592091 1.15798684 -7.16883141 -0.04974992 0 0 Z " fill="#FEB600" transform="translate(268.5588073730469,181.75390434265137)"/>
<path d="M0 0 C6.52849556 4.05558058 11.42460793 8.622186 14 16 C15.63342575 25.02348786 11.68103966 33.93677028 8 42 C7.34 42 6.68 42 6 42 C6.0928125 43.05767578 6.0928125 43.05767578 6.1875 44.13671875 C5.954777 47.69059289 4.77529604 49.74271726 3 52.8125 C2.1646875 54.27623047 2.1646875 54.27623047 1.3125 55.76953125 C0.879375 56.50558594 0.44625 57.24164062 0 58 C-0.66 58 -1.32 58 -2 58 C-2.09925781 58.56203125 -2.19851563 59.1240625 -2.30078125 59.703125 C-3.15206881 62.4995333 -4.47834373 64.38057364 -6.1875 66.75 C-6.81398438 67.62398437 -7.44046875 68.49796875 -8.0859375 69.3984375 C-10.26771719 72.36387683 -12.48014946 75.30320615 -14.73828125 78.2109375 C-16.06553011 79.98808895 -16.06553011 79.98808895 -17.0078125 82.09765625 C-18.25443661 84.48783711 -20.05024351 85.66281345 -22.14453125 87.296875 C-25.53518402 90.40913733 -28.22996493 94.14299907 -31.046875 97.76953125 C-31.69140625 98.50558594 -32.3359375 99.24164062 -33 100 C-33.66 100 -34.32 100 -35 100 C-35.26296875 100.59683594 -35.5259375 101.19367188 -35.796875 101.80859375 C-41.24785603 111.73716634 -56.61440827 120.68767783 -66.04296875 126.72265625 C-68.01340434 128.00874894 -69.87342606 129.39401905 -71.75 130.8125 C-74.72540883 132.81517902 -76.4840714 133.68037013 -80 134 C-80 134.66 -80 135.32 -80 136 C-81.7902061 136.67057887 -83.58221489 137.3363469 -85.375 138 C-86.37273437 138.37125 -87.37046875 138.7425 -88.3984375 139.125 C-91 140 -91 140 -93 140 C-93 140.66 -93 141.32 -93 142 C-97.96284034 144.37113483 -102.45949887 146.43174347 -108 147 C-108 147.66 -108 148.32 -108 149 C-114.20514474 151.13619737 -119.42684522 152.36517527 -126 152 C-126 152.66 -126 153.32 -126 154 C-140.36190571 156.68618759 -154.30376617 157.44440723 -168.90161133 157.33618164 C-172.32592085 157.31240682 -175.74945574 157.31567231 -179.17382812 157.32226562 C-207.85530317 157.28674276 -207.85530317 157.28674276 -218 153 C-219.32135699 152.61441279 -220.65101542 152.2558499 -221.98828125 151.9296875 C-222.69404297 151.75566406 -223.39980469 151.58164062 -224.12695312 151.40234375 C-224.84818359 151.22832031 -225.56941406 151.05429687 -226.3125 150.875 C-227.05306641 150.69324219 -227.79363281 150.51148438 -228.55664062 150.32421875 C-230.370304 149.8795787 -232.18504608 149.43934255 -234 149 C-234 148.34 -234 147.68 -234 147 C-236.31 146.67 -238.62 146.34 -241 146 C-241 145.34 -241 144.68 -241 144 C-242.216875 143.79375 -243.43375 143.5875 -244.6875 143.375 C-251.21188887 141.95756088 -257.04013248 138.92927028 -263 136 C-263 135.34 -263 134.68 -263 134 C-263.55977539 133.84797119 -264.11955078 133.69594238 -264.69628906 133.53930664 C-270.63379619 131.76867952 -274.93266419 129.28198146 -279.75 125.4375 C-280.43247803 124.90809814 -281.11495605 124.37869629 -281.81811523 123.83325195 C-283.21230418 122.75093599 -284.60289366 121.66396658 -285.98974609 120.57226562 C-287.86863032 119.10274723 -289.76553446 117.66277179 -291.67578125 116.234375 C-304.23713422 106.8164682 -304.23713422 106.8164682 -308 102 C-308 101.34 -308 100.68 -308 100 C-308.58136719 99.74347656 -309.16273438 99.48695313 -309.76171875 99.22265625 C-316.97468741 95.28258785 -322.22409792 87.50560505 -327 81 C-327.42168457 80.42813965 -327.84336914 79.8562793 -328.27783203 79.26708984 C-329.67181806 77.37085523 -331.05634396 75.46809641 -332.4375 73.5625 C-332.88722168 72.94681152 -333.33694336 72.33112305 -333.80029297 71.69677734 C-337 67.2330805 -337 67.2330805 -337 65 C-337.66 65 -338.32 65 -339 65 C-339.99 62.03 -339.99 62.03 -341 59 C-341.66 59 -342.32 59 -343 59 C-346 53.25 -346 53.25 -346 51 C-346.66 51 -347.32 51 -348 51 C-348.79311367 49.27149655 -349.5844259 47.54216646 -350.375 45.8125 C-350.81585938 44.84957031 -351.25671875 43.88664063 -351.7109375 42.89453125 C-352.34902344 41.46173828 -352.34902344 41.46173828 -353 40 C-353.38414062 39.13761719 -353.76828125 38.27523437 -354.1640625 37.38671875 C-355 35 -355 35 -355 31 C-355.66 31 -356.32 31 -357 31 C-357.93619813 27.84493858 -358.1057123 25.03413498 -358.0625 21.75 C-358.05347656 20.85796875 -358.04445313 19.9659375 -358.03515625 19.046875 C-358.02355469 18.37140625 -358.01195312 17.6959375 -358 17 C-357.34 17 -356.68 17 -356 17 C-355.9175 16.13375 -355.835 15.2675 -355.75 14.375 C-354.15858939 7.21365223 -350.02206089 3.99056526 -344.12109375 0.19921875 C-340.10589749 -2.070883 -336.731665 -2.1919276 -332.1875 -2.25 C-330.98480469 -2.27578125 -329.78210938 -2.3015625 -328.54296875 -2.328125 C-321.76454278 -1.70035457 -316.52975578 2.10871442 -312 7 C-309.70492817 10.42358781 -307.94056632 14.06144048 -306.14428711 17.76367188 C-300.07121915 30.12022291 -293.14005107 41.62033147 -283.41015625 51.421875 C-280.89987267 54.10710541 -279.02834101 56.94291109 -277 60 C-275.28463313 61.75526829 -275.28463313 61.75526829 -273.5 63.125 C-270.00129831 65.99095776 -266.87834142 69.04637218 -263.8125 72.375 C-260.17249235 75.77234048 -256.17789705 78.31420904 -252 81 C-250.41503941 82.06007104 -248.8316623 83.12251405 -247.25 84.1875 C-245.83389736 85.12585175 -244.41730582 86.06346655 -243 87 C-242.13375 87.5775 -241.2675 88.155 -240.375 88.75 C-237.98133498 90.0098237 -235.67968803 90.66773187 -233.0703125 91.33984375 C-230.50936402 92.15644808 -228.17560825 93.27998039 -225.75 94.4375 C-220.30929149 96.98806793 -214.83452546 98.61190207 -209 100 C-209 100.66 -209 101.32 -209 102 C-208.29875 102.06058594 -207.5975 102.12117187 -206.875 102.18359375 C-205.92625 102.26738281 -204.9775 102.35117187 -204 102.4375 C-202.6078125 102.55931641 -202.6078125 102.55931641 -201.1875 102.68359375 C-198.8842209 102.91222807 -196.58602962 103.19425331 -194.29296875 103.50927734 C-190.23641294 104.01834589 -186.21077137 104.16122383 -182.125 104.16796875 C-181.03360718 104.17296135 -181.03360718 104.17296135 -179.92016602 104.17805481 C-178.38737614 104.18308394 -176.85457546 104.18546439 -175.32177734 104.18530273 C-173.0333333 104.18746845 -170.74538903 104.20560964 -168.45703125 104.22460938 C-159.62145355 104.25713166 -151.10166834 103.70305229 -142.35546875 102.4309082 C-139.51390555 102.06599558 -136.85751321 101.91393442 -134 102 C-134 101.34 -134 100.68 -134 100 C-129.74937836 98.55421033 -125.51376776 97.14318118 -121.1875 95.9375 C-118.0930641 95.12934333 -118.0930641 95.12934333 -115.75 93.875 C-114 93 -114 93 -111 93 C-111 92.34 -111 91.68 -111 91 C-109.845 90.54625 -108.69 90.0925 -107.5 89.625 C-95.55673619 84.31478302 -83.18456886 76.44669727 -74.0625 67.0625 C-73.381875 66.381875 -72.70125 65.70125 -72 65 C-71.34 65 -70.68 65 -70 65 C-69.74863281 64.41476562 -69.49726562 63.82953125 -69.23828125 63.2265625 C-67.8424376 60.71668591 -66.31827008 59.29625095 -64.1875 57.375 C-51.29163832 44.68646729 -42.79807541 28.86801274 -34.91333008 12.78320312 C-34.5655249 12.07873047 -34.21771973 11.37425781 -33.859375 10.6484375 C-33.55354492 10.02372559 -33.24771484 9.39901367 -32.93261719 8.75537109 C-29.93889641 3.12059298 -26.27936756 0.00138098 -20.4609375 -2.30859375 C-13.39095381 -4.2949225 -6.42243361 -3.51109698 0 0 Z " fill="#FCF9F3" transform="translate(674,471)"/>
<path d="M0 0 C167.64 0 335.28 0 508 0 C502.6658514 2.6670743 498.79488212 3.14401047 492.9538393 3.12863445 C491.70368982 3.13126401 491.70368982 3.13126401 490.42828479 3.13394669 C487.61113456 3.13863093 484.79403539 3.13613497 481.97688293 3.13371277 C479.9464683 3.13557953 477.91605402 3.13787969 475.88564032 3.14057809 C470.28688332 3.14671933 464.68814119 3.14655977 459.08938158 3.14538372 C453.05854775 3.14518029 447.02771879 3.15069293 440.99688721 3.15544128 C429.17343432 3.16376143 417.34998626 3.16650969 405.5265312 3.16705366 C395.91806911 3.16751284 386.30960864 3.16956928 376.70114708 3.17275429 C373.93738149 3.17365181 371.17361589 3.17454162 368.4098503 3.17542917 C367.37927926 3.17576074 367.37927926 3.17576074 366.32788859 3.17609901 C346.99540892 3.18225549 327.6629298 3.18619935 308.3304491 3.18575573 C307.60119879 3.18574015 306.87194848 3.18572457 306.12059967 3.18570852 C302.42429706 3.18562541 298.72799444 3.18552637 295.03169183 3.18542381 C293.93050784 3.1853939 293.93050784 3.1853939 292.80707771 3.18536337 C291.32250107 3.18532294 289.83792442 3.18528114 288.35334777 3.18523798 C265.25924052 3.18462532 242.16514796 3.19212919 219.07104492 3.20581055 C193.13534296 3.22116892 167.19965065 3.22977689 141.26394385 3.22884732 C138.49860648 3.22877269 135.73326912 3.22872399 132.96793175 3.22869301 C132.28701745 3.22868135 131.60610314 3.2286697 130.90455508 3.22865769 C119.94263195 3.22862691 108.98072155 3.23501529 98.01880221 3.24362527 C87.00178544 3.25209955 75.98478359 3.25292183 64.96776436 3.24651595 C58.99827511 3.24324385 53.02883205 3.24321887 47.05934715 3.2518692 C41.59595463 3.25970482 36.13264516 3.25833291 30.66925474 3.24958507 C28.69142207 3.24804357 26.71358328 3.24989058 24.73575781 3.25544515 C22.04885988 3.26249203 19.36225435 3.25722188 16.6753664 3.24888897 C15.52176343 3.25634124 15.52176343 3.25634124 14.34485534 3.26394406 C9.26711834 3.23061916 4.8872623 2.39142017 0 1 C0 0.67 0 0.34 0 0 Z " fill="#F4B03D" transform="translate(249,701)"/>
<path d="M0 0 C0.77285351 0.00525403 1.54570702 0.01050805 2.34198034 0.01592129 C3.16314926 0.01361361 3.98431819 0.01130592 4.83037102 0.0089283 C7.61180822 0.00358899 10.39301887 0.01264477 13.17444456 0.02150792 C15.1766994 0.02063665 17.17895402 0.01888714 19.18120742 0.01632959 C24.7064809 0.01183649 30.23167752 0.01988655 35.7569412 0.02988571 C41.70651859 0.03848979 47.65609134 0.03560221 53.60567319 0.03408116 C63.92143967 0.03303038 74.23718271 0.03925764 84.55294263 0.05055684 C95.37512555 0.06238043 106.19729841 0.07008661 117.01948774 0.07226247 C118.0278488 0.07246868 118.0278488 0.07246868 119.0565808 0.07267907 C122.47038465 0.07335571 125.88418852 0.07395849 129.29799239 0.07453282 C153.49423322 0.07873654 177.6904609 0.09221931 201.88669431 0.11113805 C225.39678475 0.12949912 248.90687159 0.14367016 272.41696775 0.15215367 C273.50349885 0.15254825 273.50349885 0.15254825 274.61198007 0.1529508 C281.88606976 0.15558778 289.16015949 0.15813942 296.43424924 0.16062852 C311.2531451 0.1657013 326.07204073 0.1713438 340.89093626 0.17733067 C341.5723238 0.17760525 342.25371135 0.17787983 342.95574701 0.17816273 C388.47765687 0.1965721 433.99955911 0.22830495 479.52145994 0.26201695 C479.52145994 0.92201695 479.52145994 1.58201695 479.52145994 2.26201695 C480.53208494 2.22076695 481.54270994 2.17951695 482.58395994 2.13701695 C486.70222046 2.26775538 489.63976527 2.99452482 493.52145994 4.26201695 C493.52145994 4.59201695 493.52145994 4.92201695 493.52145994 5.26201695 C490.88145994 5.59201695 488.24145994 5.92201695 485.52145994 6.26201695 C485.19145994 5.27201695 484.86145994 4.28201695 484.52145994 3.26201695 C483.78417913 3.26293875 483.04689832 3.26386054 482.28727567 3.26481026 C456.53201058 3.29634081 430.77674184 3.31406399 405.02145994 3.32451695 C403.46542019 3.32516841 403.46542019 3.32516841 401.8779453 3.32583302 C312.36758943 3.36222701 222.85883807 3.09756056 130.81274402 2.77103841 C128.26355814 2.7619889 125.71437221 2.7529512 123.16518629 2.74391478 C79.61725421 2.58946502 36.06934587 2.42897781 -7.47854006 2.26201695 C-4.96305046 -0.25347265 -3.4314818 0.02204237 0 0 Z " fill="#F6B837" transform="translate(265.47854006290436,181.7379830479622)"/>
<path d="M0 0 C0.33 0 0.66 0 1 0 C1.11451679 54.23527205 1.20258516 108.47053185 1.25532665 162.70590108 C1.26157996 169.11309766 1.2680516 175.52029401 1.2746582 181.92749023 C1.27662553 183.840776 1.27662553 183.840776 1.2786326 185.79271401 C1.30037194 206.42888545 1.33978538 227.06498704 1.38576398 247.70111709 C1.43256953 268.88553729 1.46030407 290.06992099 1.47044247 311.25439078 C1.4772931 324.31976952 1.49890761 337.38495081 1.53958233 350.45026875 C1.56607126 359.41725004 1.57398706 368.38412968 1.56750689 377.35114723 C1.5643136 382.5198437 1.56910817 387.68819581 1.59602737 392.8568306 C1.62054526 397.59930216 1.62146864 402.3412012 1.60449447 407.08370037 C1.60239986 408.78925216 1.60858455 410.49484123 1.62441591 412.20032083 C1.72702133 423.94754866 -0.1295932 433.90186808 -4 445 C-4.66 445 -5.32 445 -6 445 C-6.33 445.66 -6.66 446.32 -7 447 C-7.22036864 443.14354879 -6.60355101 440.50776784 -5 437 C-4.34 437 -3.68 437 -3 437 C-3.020625 435.88625 -3.04125 434.7725 -3.0625 433.625 C-3 430 -3 430 -2 428 C-1.89959976 425.83748795 -1.86607334 423.67179238 -1.8613348 421.5069561 C-1.85849258 420.82929894 -1.85565036 420.15164178 -1.85272202 419.45344955 C-1.84433476 417.16026904 -1.84310367 414.86713879 -1.84178162 412.57394409 C-1.837219 410.92229661 -1.83221943 409.27065028 -1.82681805 407.61900532 C-1.81319325 403.06289703 -1.80580607 398.50679624 -1.79939139 393.95067286 C-1.79140645 389.04404108 -1.77770215 384.13742498 -1.76467896 379.23080444 C-1.74288908 370.72393152 -1.7247538 362.21705704 -1.70907402 353.71017075 C-1.68639822 341.41051612 -1.65825225 329.11087884 -1.62875474 316.8112389 C-1.5810507 296.85772811 -1.53779416 276.90421025 -1.49731445 256.95068359 C-1.45797382 237.56330819 -1.41655104 218.17593909 -1.37231445 198.78857422 C-1.36959018 197.59430143 -1.36686591 196.40002865 -1.36405908 195.16956578 C-1.35037984 189.17847847 -1.33665952 183.18739125 -1.32291877 177.19630408 C-1.20890984 127.46421585 -1.10211027 77.73211398 -1 28 C-3.86633828 29.3023278 -5.29065914 30.29774839 -7.5625 32.625 C-10 35 -10 35 -13 35 C-8.55461165 30.28519417 -8.55461165 30.28519417 -6.21484375 29.08203125 C-4.00100137 27.93045719 -2.6072927 26.92538925 -1 25 C0.02521493 20.73490864 -0.02088065 16.55753148 -0.0625 12.1875 C-0.04638672 11.01767578 -0.03027344 9.84785156 -0.01367188 8.64257812 C0.02161853 5.76052868 0.02508894 2.88205262 0 0 Z " fill="#E8A53C" transform="translate(794,228)"/>
<path d="M0 0 C159.06 0 318.12 0 482 0 C477.85906448 2.07046776 475.12709355 2.27899629 470.66638374 2.24330235 C469.92209832 2.24531044 469.1778129 2.24731853 468.41097337 2.24938747 C465.90288725 2.25369788 463.39506086 2.24366845 460.88699341 2.23377991 C459.07605839 2.23393589 457.26512327 2.23497368 455.45418918 2.23682016 C450.46616898 2.23935882 445.47823883 2.22939667 440.49023509 2.2174722 C435.11424061 2.20680216 429.73824695 2.20767227 424.36224365 2.2071991 C415.03912137 2.20483357 405.71602886 2.19524049 396.39291763 2.18089485 C382.88923029 2.16021699 369.38555571 2.15153296 355.88185464 2.1459735 C333.94254953 2.13670882 312.00325928 2.11924617 290.06396484 2.09594727 C288.75014595 2.09455395 287.43632706 2.09316064 286.08269547 2.0917251 C284.10964639 2.08963181 284.10964639 2.08963181 282.09673774 2.08749622 C263.49206495 2.06777235 244.88739166 2.04992518 226.28271484 2.03442383 C224.97595256 2.03333298 223.66919028 2.03224213 222.32282914 2.03111822 C200.48849858 2.01305774 178.65416649 1.99910871 156.81983173 1.98725218 C143.36273434 1.97968261 129.90565207 1.96796642 116.44856344 1.95079052 C107.20968704 1.93916818 97.97081186 1.93101889 88.73192979 1.92552502 C83.41081886 1.92221328 78.08972326 1.9172407 72.76861954 1.90771103 C45.37564307 1.78449035 45.37564307 1.78449035 18.00849724 2.81464291 C12.70365379 3.11923715 7.20572633 3.14247811 2 2 C1.34 1.34 0.68 0.68 0 0 Z " fill="#EDEBE6" transform="translate(262,58)"/>
<path d="M0 0 C0.99 0.33 1.98 0.66 3 1 C3.103125 2.051875 3.20625 3.10375 3.3125 4.1875 C3.72329828 7.91225093 3.72329828 7.91225093 5.51937354 10.28231013 C7.43502887 13.79849549 7.37602332 16.29930823 7.37752342 20.29553795 C7.38406391 21.38751448 7.38406391 21.38751448 7.39073652 22.50155115 C7.40171049 24.94811178 7.39126099 27.39411093 7.38095093 29.84066772 C7.38440666 31.60953645 7.38917065 33.37840302 7.39513266 35.14726508 C7.40768419 40.01378758 7.40145339 44.88013414 7.39217401 49.74665737 C7.38540074 54.9928451 7.39585625 60.23900206 7.40411377 65.48518372 C7.41747227 75.76531134 7.41456378 86.04537335 7.40587585 96.32550357 C7.3991073 104.67964037 7.39817899 113.03375874 7.4014473 121.38789749 C7.401907 122.57582895 7.40236669 123.76376042 7.40284032 124.9876898 C7.40379948 127.40079502 7.40477212 129.81390023 7.4057581 132.22700544 C7.41431838 154.86965669 7.40446823 177.51227155 7.388357 200.15491684 C7.3749567 219.58929874 7.37727831 239.02362688 7.39111328 258.45800781 C7.40716377 281.01521237 7.41349071 303.57238498 7.40427649 326.12959445 C7.40332083 328.53455328 7.40237771 330.93951213 7.4014473 333.34447098 C7.40098447 334.52781436 7.40052164 335.71115774 7.40004479 336.93036001 C7.39745305 345.2748028 7.40182994 353.61922535 7.40888596 361.96366501 C7.4172954 372.13243475 7.41503264 382.30113501 7.39904372 392.46989678 C7.39115302 397.65957049 7.38808303 402.84912831 7.39799118 408.03880119 C7.40692217 412.78846802 7.40203148 417.53791139 7.38605852 422.28755791 C7.38270392 424.00690027 7.38442002 425.72626146 7.39168589 427.44559173 C7.40080142 429.78158993 7.39145919 432.1168216 7.37752342 434.45277977 C7.37703637 435.75061154 7.37654931 437.04844331 7.37604749 438.38560331 C6.94081955 442.56881546 5.76139851 445.204021 4 449 C3.5945897 451.32189536 3.23927006 453.65515344 3 456 C2.34 456 1.68 456 1 456 C1 457.65 1 459.3 1 461 C-0.32 461.33 -1.64 461.66 -3 462 C-2.505 460.02 -2.505 460.02 -2 458 C-1.34 458 -0.68 458 0 458 C0.12117187 457.27554687 0.24234375 456.55109375 0.3671875 455.8046875 C0.53476562 454.83789062 0.70234375 453.87109375 0.875 452.875 C1.03742187 451.92367188 1.19984375 450.97234375 1.3671875 449.9921875 C2 447 2 447 3.02319372 444.27689588 C4.13198197 440.55723958 4.25490157 437.45773639 4.26171303 433.57747841 C4.26770712 432.4831579 4.26770712 432.4831579 4.27382231 431.36672992 C4.28479496 428.92106363 4.28159554 426.47562365 4.2784729 424.02993774 C4.28347585 422.25934226 4.28935164 420.48874906 4.29602563 418.71815908 C4.31183973 413.8518299 4.31525709 408.98555844 4.31667423 404.11920667 C4.32036581 398.87180258 4.33552008 393.62443025 4.34928894 388.37704468 C4.37157319 379.28528805 4.38657948 370.19354271 4.39665604 361.10176468 C4.41123558 347.95654943 4.43677038 334.81137347 4.46498732 321.66618125 C4.51046848 300.33947628 4.54707782 279.01276566 4.578125 257.68603516 C4.60830512 236.9679261 4.64265292 216.24983088 4.68261719 195.53173828 C4.68507874 194.25488051 4.68754028 192.97802275 4.69007643 191.66247232 C4.70245092 185.2569135 4.71490748 178.85135484 4.72740483 172.44579625 C4.83099245 119.29721681 4.92018917 66.1486201 5 13 C4.34 13 3.68 13 3 13 C2.49487756 11.39743892 1.99608373 9.79288208 1.5 8.1875 C1.08234375 6.84751953 1.08234375 6.84751953 0.65625 5.48046875 C0 3 0 3 0 0 Z " fill="#FEF7CD" transform="translate(790,215)"/>
<path d="M0 0 C0 1.32 0 2.64 0 4 C-2.31 4 -4.62 4 -7 4 C-7 3.34 -7 2.68 -7 2 C-166.72 2 -326.44 2 -491 2 C-491 1.67 -491 1.34 -491 1 C-444.40847781 0.90465083 -397.81695561 0.80930653 -351.22543335 0.71398926 C-350.53634781 0.71257952 -349.84726226 0.71116978 -349.13729534 0.70971733 C-334.16319706 0.67908321 -319.18909877 0.64845 -304.21500049 0.61781773 C-296.8721748 0.60279662 -289.52934912 0.58777532 -282.18652344 0.57275391 C-281.0904486 0.57051164 -281.0904486 0.57051164 -279.97223083 0.56822408 C-256.26882556 0.51973342 -232.56542031 0.47122946 -208.86201507 0.42271865 C-184.51263571 0.37288587 -160.16325632 0.32306644 -135.81387689 0.2732639 C-132.37816987 0.26623674 -128.94246285 0.25920942 -125.50675583 0.25218201 C-124.83053009 0.25079886 -124.15430435 0.24941571 -123.45758692 0.24799064 C-112.55289893 0.22568582 -101.64821096 0.20336686 -90.743523 0.18104266 C-79.79234031 0.15862357 -68.8411576 0.13621959 -57.88997485 0.11383021 C-51.95164568 0.10168902 -46.01331653 0.08954103 -40.07498741 0.07737541 C-34.64697565 0.0662554 -29.21896385 0.05515397 -23.79095201 0.0440678 C-21.81919324 0.04003731 -19.84743449 0.03599979 -17.87567575 0.03195482 C-15.21144717 0.02649028 -12.54721853 0.0210505 -9.88298988 0.01561737 C-9.10371899 0.01401303 -8.3244481 0.01240868 -7.52156293 0.01075572 C-2.2282916 0 -2.2282916 0 0 0 Z " fill="#FFFAD9" transform="translate(752,180)"/>
<path d="M0 0 C0.66 0.33 1.32 0.66 2 1 C-5.01010101 9.68686869 -5.01010101 9.68686869 -10 11 C-12.70465742 11.86454438 -12.70465742 11.86454438 -15 13 C-15.33 13.99 -15.66 14.98 -16 16 C-19.48318519 19.37433565 -23.25434669 21.1258011 -27.6484375 22.9921875 C-29.94569351 23.97672579 -32.19409115 25.0236902 -34.4375 26.125 C-35.07558594 26.43695312 -35.71367188 26.74890625 -36.37109375 27.0703125 C-38.18837989 28.012636 -38.18837989 28.012636 -40 30 C-41.98828125 30.52734375 -41.98828125 30.52734375 -44.3125 30.9375 C-48.10944349 31.70296381 -50.72074328 32.90491932 -54 35 C-56.8125 35.6875 -56.8125 35.6875 -59 36 C-59.33 35.34 -59.66 34.68 -60 34 C-58.68 34 -57.36 34 -56 34 C-56 33.34 -56 32.68 -56 32 C-54.7625 31.54625 -53.525 31.0925 -52.25 30.625 C-49.97509597 29.77843078 -47.84917585 28.92254976 -45.6875 27.8125 C-44 27 -44 27 -41 27 C-41 26.34 -41 25.68 -41 25 C-39.39850114 24.32694982 -37.79368971 23.66177773 -36.1875 23 C-35.29417969 22.62875 -34.40085937 22.2575 -33.48046875 21.875 C-31 21 -31 21 -28 21 C-28 20.34 -28 19.68 -28 19 C-26.845 18.46375 -25.69 17.9275 -24.5 17.375 C-20.61227391 15.43800573 -17.29370038 13.10558878 -13.875 10.44140625 C-12.26149832 9.20102683 -10.57357446 8.05855914 -8.875 6.9375 C-5.71218073 4.80603484 -2.89407875 2.48063893 0 0 Z " fill="#E98A26" transform="translate(622,586)"/>
<path d="M0 0 C2 1 2 1 2 1 Z M0 1 C-0.8125 3.4375 -0.8125 3.4375 -2 6 C-2.99 6.33 -3.98 6.66 -5 7 C-5 7.66 -5 8.32 -5 9 C-6.15605596 10.19005761 -7.31854581 11.37450342 -8.51171875 12.52734375 C-13.21562171 17.1818619 -16.95914271 22.3133665 -20.546875 27.85546875 C-21.87285885 29.81236427 -23.26919473 31.58778154 -24.8125 33.375 C-27.15731592 35.86461552 -27.15731592 35.86461552 -28 39 C-28.66 39 -29.32 39 -30 39 C-28.70716607 33.95794768 -26.30607571 30.37571354 -23.37890625 26.171875 C-21.82778638 23.92644063 -21.82778638 23.92644063 -20.9375 20.75 C-19.71738049 17.17098276 -17.75216796 15.56015625 -15 13 C-14.09102179 11.90662907 -13.1949892 10.80236062 -12.3125 9.6875 C-11.549375 8.800625 -10.78625 7.91375 -10 7 C-9.34 7 -8.68 7 -8 7 C-7.7525 6.38125 -7.505 5.7625 -7.25 5.125 C-5.4936973 2.13928541 -3.46854079 1 0 1 Z " fill="#F4F3F0" transform="translate(148,99)"/>
<path d="M0 0 C0.33 0 0.66 0 1 0 C1.0695943 10.83130331 1.12285921 21.66255317 1.15543652 32.49403477 C1.17107415 37.52385433 1.19227774 42.5535206 1.22631836 47.58325195 C1.25897955 52.43970682 1.27686732 57.29601448 1.28463173 62.15257072 C1.2901631 64.0028814 1.30096453 65.85318428 1.31719017 67.70343208 C1.33905438 70.30059167 1.34196318 72.89714755 1.34057617 75.49438477 C1.35675491 76.63482742 1.35675491 76.63482742 1.3732605 77.79830933 C1.34361878 82.94760697 0.20043803 86.3516643 -2 91 C-2.4054103 93.32189536 -2.76072994 95.65515344 -3 98 C-3.66 98 -4.32 98 -5 98 C-5 99.65 -5 101.3 -5 103 C-6.98 103.495 -6.98 103.495 -9 104 C-8.67 102.68 -8.34 101.36 -8 100 C-7.34 100 -6.68 100 -6 100 C-5.81824219 98.91332031 -5.81824219 98.91332031 -5.6328125 97.8046875 C-4.75060421 92.71502427 -3.83557653 87.85116654 -2 83 C-1.34 83 -0.68 83 0 83 C0 55.61 0 28.22 0 0 Z " fill="#FFF8E5" transform="translate(796,573)"/>
<path d="M0 0 C0 31.35 0 62.7 0 95 C-0.33 95 -0.66 95 -1 95 C-1 64.64 -1 34.28 -1 3 C-5.02619166 4.74006758 -5.02619166 4.74006758 -7.5625 7.625 C-10 10 -10 10 -13 10 C-3.57142857 0 -3.57142857 0 0 0 Z " fill="#ED9915" transform="translate(794,253)"/>
<path d="M0 0 C3.16666667 3.16666667 6.33333333 6.33333333 9.5 9.5 C10.675625 10.67369141 10.675625 10.67369141 11.875 11.87109375 C13.42634729 13.42529279 14.96651309 14.99067591 16.5 16.5625 C24.48897461 24.35175025 33.18824834 31.18123343 42 38 C40.02 38.495 40.02 38.495 38 39 C37.67 38.01 37.34 37.02 37 36 C34.98491642 35.26676204 34.98491642 35.26676204 33 35 C33 34.34 33 33.68 33 33 C32.195625 32.731875 31.39125 32.46375 30.5625 32.1875 C29.716875 31.795625 28.87125 31.40375 28 31 C27.67 30.01 27.34 29.02 27 28 C24.98491642 27.26676204 24.98491642 27.26676204 23 27 C23 26.34 23 25.68 23 25 C22.34 25 21.68 25 21 25 C21 24.34 21 23.68 21 23 C19.68 22.34 18.36 21.68 17 21 C17 20.34 17 19.68 17 19 C16.34 19 15.68 19 15 19 C15 18.01 15 17.02 15 16 C14.42378906 15.92394531 13.84757812 15.84789062 13.25390625 15.76953125 C10.2307609 14.73736551 8.99423484 13.10881982 6.9375 10.6875 C6.26589844 9.90761719 5.59429687 9.12773438 4.90234375 8.32421875 C0 2.33470226 0 2.33470226 0 0 Z " fill="#E78927" transform="translate(350,556)"/>
<path d="M0 0 C0.33 0.66 0.66 1.32 1 2 C-0.375 4 -0.375 4 -2 6 C-2.66 6 -3.32 6 -4 6 C-4.18175781 6.83015625 -4.36351562 7.6603125 -4.55078125 8.515625 C-6.52555759 13.26360477 -9.55821381 16.18032528 -13.1875 19.75 C-13.83525391 20.42160156 -14.48300781 21.09320312 -15.15039062 21.78515625 C-19.25482733 25.87729194 -22.26981724 27.95949989 -28 29 C-26.37660195 27.29115995 -24.70680947 25.62553283 -23 24 C-22.34 24 -21.68 24 -21 24 C-20.67 23.01 -20.34 22.02 -20 21 C-18.43359375 19.52734375 -18.43359375 19.52734375 -16.4375 17.9375 C-12.19828789 14.37808947 -8.97153187 10.36234638 -5.6640625 5.94140625 C-5.11492188 5.30074219 -4.56578125 4.66007813 -4 4 C-3.34 4 -2.68 4 -2 4 C-1.34 2.68 -0.68 1.36 0 0 Z " fill="#E99130" transform="translate(654,555)"/>
<path d="M0 0 C14.85 0 29.7 0 45 0 C42.27879961 2.72120039 40.66345887 2.3219692 36.85546875 2.44921875 C35.62119141 2.49240234 34.38691406 2.53558594 33.11523438 2.58007812 C31.81908203 2.61552734 30.52292969 2.65097656 29.1875 2.6875 C27.26067383 2.75807617 27.26067383 2.75807617 25.29492188 2.83007812 C19.99144423 2.99848632 15.19710557 3.1195703 10 2 C8.80375 2.020625 7.6075 2.04125 6.375 2.0625 C3 2 3 2 0 0 Z " fill="#E3831D" transform="translate(476,629)"/>
<path d="M0 0 C1.39049921 3.16022548 0.90218951 4.27014325 -0.3125 7.625 C-2 11 -2 11 -4 13 C-4.12375 13.639375 -4.2475 14.27875 -4.375 14.9375 C-5.20836645 17.68760929 -6.71241846 18.35580077 -9 20 C-9.33 20.99 -9.66 21.98 -10 23 C-12.0625 23.6875 -12.0625 23.6875 -14 24 C-12.62018779 19.58460093 -10.17889697 16.43509301 -7.33984375 12.8671875 C-5.81385317 10.93516371 -5.81385317 10.93516371 -5 8 C-4.34 7.67 -3.68 7.34 -3 7 C-1.94647157 4.69034152 -0.94280904 2.3570226 0 0 Z " fill="#EB9029" transform="translate(677,521)"/>
<path d="M0 0 C1.95903745 0.47627975 3.91721097 0.95611423 5.875 1.4375 C6.96554687 1.70433594 8.05609375 1.97117187 9.1796875 2.24609375 C12 3 12 3 14 4 C14 4.66 14 5.32 14 6 C16.31 6.33 18.62 6.66 21 7 C21 7.66 21 8.32 21 9 C24.63 9.66 28.26 10.32 32 11 C32 11.33 32 11.66 32 12 C26.21011658 12.42108243 22.56257462 11.68829346 17.3671875 9.14453125 C14.86926955 7.93679204 12.33938666 6.93253137 9.75 5.9375 C6.28544736 4.56678914 3.06994419 3.14896093 0 1 C0 0.67 0 0.34 0 0 Z " fill="#E78F33" transform="translate(419,611)"/>
<path d="M0 0 C3.99353549 1.91837271 7.70002483 4.2349458 11.46484375 6.5625 C13.92234639 7.95596837 16.35552405 9.01600895 19 10 C19 10.66 19 11.32 19 12 C20.423125 12.433125 20.423125 12.433125 21.875 12.875 C25 14 25 14 27 16 C24 16 24 16 21 15 C20.01 15 19.02 15 18 15 C18 14.34 18 13.68 18 13 C17.34 13 16.68 13 16 13 C16 12.34 16 11.68 16 11 C15.401875 10.855625 14.80375 10.71125 14.1875 10.5625 C10.45919938 9.60379413 8.66869007 8.66869007 6 6 C4.700625 5.2575 4.700625 5.2575 3.375 4.5 C1 3 1 3 0 0 Z " fill="#E58A29" transform="translate(392,595)"/>
<path d="M0 0 C0 0.33 0 0.66 0 1 C-2.97 1 -5.94 1 -9 1 C-9 1.66 -9 2.32 -9 3 C-9.63808594 3.26554687 -10.27617188 3.53109375 -10.93359375 3.8046875 C-11.75988281 4.15789062 -12.58617187 4.51109375 -13.4375 4.875 C-14.67306641 5.39707031 -14.67306641 5.39707031 -15.93359375 5.9296875 C-18.15746715 6.8244937 -18.15746715 6.8244937 -19 9 C-19.66 9 -20.32 9 -21 9 C-21.33 10.32 -21.66 11.64 -22 13 C-22.66 13 -23.32 13 -24 13 C-24 13.66 -24 14.32 -24 15 C-24.66 15 -25.32 15 -26 15 C-24.30653055 9.76563987 -21.65545474 5.70557864 -17.0234375 2.73046875 C-11.32617295 -0.11816353 -6.29235268 -0.47291168 0 0 Z " fill="#FDE6BA" transform="translate(666,468)"/>
<path d="M0 0 C7.7863999 2.97632315 15.52645118 6.5605308 21 13 C21.46277344 13.51949219 21.92554688 14.03898438 22.40234375 14.57421875 C26 18.69009695 26 18.69009695 26 21 C25.34 21 24.68 21 24 21 C24 20.34 24 19.68 24 19 C23.34 19 22.68 19 22 19 C22 18.34 22 17.68 22 17 C21.34 17 20.68 17 20 17 C19.484375 16.113125 18.96875 15.22625 18.4375 14.3125 C15.74407525 9.96793365 11.48103535 8.16391878 7 6 C7 5.34 7 4.68 7 4 C5.824375 3.7834375 5.824375 3.7834375 4.625 3.5625 C2 3 2 3 0 2 C0 1.34 0 0.68 0 0 Z " fill="#F5B738" transform="translate(759,187)"/>
<path d="M0 0 C0.33 1.32 0.66 2.64 1 4 C0.360625 4.2475 -0.27875 4.495 -0.9375 4.75 C-3.16676943 5.79331795 -3.16676943 5.79331795 -3.625 7.9375 C-3.74875 8.618125 -3.8725 9.29875 -4 10 C-6.25557736 13.38336604 -7.36188532 13.60072512 -11 15 C-11.33 15.66 -11.66 16.32 -12 17 C-13.32 16.67 -14.64 16.34 -16 16 C-15.5153125 15.59910156 -15.030625 15.19820312 -14.53125 14.78515625 C-9.18553094 10.25157528 -4.54441546 5.3300192 0 0 Z " fill="#FBE2B1" transform="translate(786,678)"/>
<path d="M0 0 C1.8871875 0.061875 1.8871875 0.061875 3.8125 0.125 C-2.29555977 3.41395526 -7.33856765 4.36117008 -14.1875 4.125 C-14.1875 4.785 -14.1875 5.445 -14.1875 6.125 C-17.8175 6.455 -21.4475 6.785 -25.1875 7.125 C-24.1975 6.795 -23.2075 6.465 -22.1875 6.125 C-22.1875 5.465 -22.1875 4.805 -22.1875 4.125 C-21.13949219 4.00382813 -20.09148438 3.88265625 -19.01171875 3.7578125 C-17.63276114 3.58896055 -16.25385761 3.41966659 -14.875 3.25 C-14.18470703 3.17136719 -13.49441406 3.09273437 -12.78320312 3.01171875 C-8.01100506 2.41231223 -4.72431489 -0.15489557 0 0 Z " fill="#FAD7A6" transform="translate(562.1875,618.875)"/>
<path d="M0 0 C1.47968324 0.14049518 2.95874516 0.28754826 4.4375 0.4375 C5.67306641 0.55931641 5.67306641 0.55931641 6.93359375 0.68359375 C9 1 9 1 10 2 C12.52195967 2.39943176 15.02963656 2.75079848 17.5625 3.0625 C18.27341797 3.15337891 18.98433594 3.24425781 19.71679688 3.33789062 C21.47738403 3.56239503 23.23863478 3.78168397 25 4 C25 4.66 25 5.32 25 6 C20.04693174 6.13952305 15.64845668 5.69028162 10.8125 4.625 C9.62269531 4.36976563 8.43289063 4.11453125 7.20703125 3.8515625 C4.52824013 3.14026352 2.39156867 2.36491512 0 1 C0 0.67 0 0.34 0 0 Z " fill="#E58A28" transform="translate(451,623)"/>
<path d="M0 0 C0 7.26 0 14.52 0 22 C-0.33 22 -0.66 22 -1 22 C-1 15.73 -1 9.46 -1 3 C-5.02619166 4.74006758 -5.02619166 4.74006758 -7.5625 7.625 C-10 10 -10 10 -13 10 C-3.57142857 0 -3.57142857 0 0 0 Z " fill="#E78410" transform="translate(794,253)"/>
<path d="M0 0 C0.33 0 0.66 0 1 0 C1.04241723 2.33294775 1.04092937 4.66702567 1 7 C0.67 7.33 0.34 7.66 0 8 C-0.36760731 10.32817964 -0.70241581 12.6618385 -1 15 C-1.66 15 -2.32 15 -3 15 C-3 16.65 -3 18.3 -3 20 C-4.32 20.33 -5.64 20.66 -7 21 C-6.67 19.68 -6.34 18.36 -6 17 C-5.34 17 -4.68 17 -4 17 C-3.87882813 16.27554688 -3.75765625 15.55109375 -3.6328125 14.8046875 C-2.75060421 9.71502427 -1.83557653 4.85116654 0 0 Z " fill="#FBE7BC" transform="translate(794,656)"/>
<path d="M0 0 C0 0.33 0 0.66 0 1 C-1.39025391 1.19916016 -1.39025391 1.19916016 -2.80859375 1.40234375 C-4.00613281 1.57894531 -5.20367188 1.75554688 -6.4375 1.9375 C-7.63246094 2.11152344 -8.82742188 2.28554688 -10.05859375 2.46484375 C-12.87955676 2.68985213 -12.87955676 2.68985213 -14 4 C-16.18019479 4.39666227 -18.3696463 4.74315237 -20.5625 5.0625 C-21.76003906 5.23910156 -22.95757813 5.41570313 -24.19140625 5.59765625 C-25.58166016 5.79681641 -25.58166016 5.79681641 -27 6 C-27.33 5.34 -27.66 4.68 -28 4 C-23.52910231 2.36044122 -19.28185224 1.48363703 -14.5625 0.875 C-13.30566406 0.70742188 -12.04882812 0.53984375 -10.75390625 0.3671875 C-7.14041781 0.01373494 -3.62786125 -0.06553556 0 0 Z " fill="#E38623" transform="translate(550,625)"/>
<path d="M0 0 C0.66 0.33 1.32 0.66 2 1 C2.30654742 9.61738853 2.39589303 16.93475404 -1 25 C-1.99 25 -2.98 25 -4 25 C-3.79503906 24.32453125 -3.59007812 23.6490625 -3.37890625 22.953125 C-2.97478516 21.61507813 -2.97478516 21.61507813 -2.5625 20.25 C-2.29566406 19.36828125 -2.02882813 18.4865625 -1.75390625 17.578125 C-1.50511719 16.72734375 -1.25632812 15.8765625 -1 15 C-0.8040625 14.3503125 -0.608125 13.700625 -0.40625 13.03125 C0.11863414 10.40682929 0.09433155 7.92385011 0.0625 5.25 C0.04896484 3.77273438 0.04896484 3.77273438 0.03515625 2.265625 C0.02355469 1.51796875 0.01195312 0.7703125 0 0 Z " fill="#EEA12E" transform="translate(687,485)"/>
<path d="M0 0 C-2.28914058 2.28914058 -3.20952162 2.38991558 -6.3125 2.9375 C-10.10944349 3.70296381 -12.72074328 4.90491932 -16 7 C-18.8125 7.6875 -18.8125 7.6875 -21 8 C-21.33 7.34 -21.66 6.68 -22 6 C-20.68 6 -19.36 6 -18 6 C-18 5.34 -18 4.68 -18 4 C-15.37764986 3.13683464 -12.75266548 2.28419221 -10.125 1.4375 C-9.37863281 1.19064453 -8.63226562 0.94378906 -7.86328125 0.68945312 C-2.2265625 -1.11328125 -2.2265625 -1.11328125 0 0 Z " fill="#E88217" transform="translate(584,614)"/>
<path d="M0 0 C0.66 0.33 1.32 0.66 2 1 C-3.22976959 7.48069431 -6.66941503 10.57189972 -15 12 C-12.36919188 9.07687987 -9.25851069 7.17234046 -6 5 C-3.95671431 3.37834469 -1.98122265 1.69819084 0 0 Z " fill="#EB9A40" transform="translate(622,586)"/>
<path d="M0 0 C2.89932357 2.39509338 3.50168276 4.31245243 4 8 C4.66 8 5.32 8 6 8 C9 13.75 9 13.75 9 16 C9.66 16 10.32 16 11 16 C11 16.66 11 17.32 11 18 C6.76654521 16.48805186 5.14335143 13.84325085 3 10 C2.62406934 8.0075675 2.28020455 6.0081326 2 4 C1.34 3.67 0.68 3.34 0 3 C0 2.01 0 1.02 0 0 Z " fill="#E88E29" transform="translate(322,514)"/>
<path d="M0 0 C6.41923331 0.29112169 10.62100206 1.45215029 16 5 C15.01 5.495 15.01 5.495 14 6 C13.11054687 5.69320313 12.22109375 5.38640625 11.3046875 5.0703125 C7.70606942 3.90480263 4.8928215 3.79810568 1.125 3.875 C-0.02742187 3.89304687 -1.17984375 3.91109375 -2.3671875 3.9296875 C-3.23601563 3.95289063 -4.10484375 3.97609375 -5 4 C-5 3.34 -5 2.68 -5 2 C-3.35 2 -1.7 2 0 2 C0 1.34 0 0.68 0 0 Z " fill="#F2A82B" transform="translate(658,465)"/>
<path d="M0 0 C1 2 1 2 -0.1875 5.8125 C-1.59954987 9.40146008 -3.39406604 12.12448666 -6 15 C-5.78943471 5.14171603 -5.78943471 5.14171603 -2.4375 1.875 C-1.633125 1.25625 -0.82875 0.6375 0 0 Z " fill="#F5F4F0" transform="translate(105,163)"/>
<path d="M0 0 C0.33 0 0.66 0 1 0 C1 5.94 1 11.88 1 18 C0.34 18 -0.32 18 -1 18 C-1.93619813 14.84493858 -2.1057123 12.03413498 -2.0625 8.75 C-2.05347656 7.85796875 -2.04445313 6.9659375 -2.03515625 6.046875 C-2.02355469 5.37140625 -2.01195312 4.6959375 -2 4 C-1.34 4 -0.68 4 0 4 C0 2.68 0 1.36 0 0 Z " fill="#FDE5B4" transform="translate(318,484)"/>
<path d="M0 0 C0.66 0 1.32 0 2 0 C2.83819158 1.62249941 3.6704116 3.24808497 4.5 4.875 C4.9640625 5.77992188 5.428125 6.68484375 5.90625 7.6171875 C7 10 7 10 7 12 C5.35 11.67 3.7 11.34 2 11 C1.855625 9.9275 1.71125 8.855 1.5625 7.75 C1.16250558 5.08337051 0.72408076 2.58600271 0 0 Z " fill="#F8B01B" transform="translate(784,208)"/>
<path d="M0 0 C0.66 0.33 1.32 0.66 2 1 C-0.33632598 4.79553299 -2.50168374 5.87114288 -6.6875 7.25 C-8.17830078 7.75273438 -8.17830078 7.75273438 -9.69921875 8.265625 C-10.83810547 8.62914063 -10.83810547 8.62914063 -12 9 C-11.1640625 7.046875 -11.1640625 7.046875 -10 5 C-7.375 4.25 -7.375 4.25 -5 4 C-5 3.34 -5 2.68 -5 2 C-2.625 0.9375 -2.625 0.9375 0 0 Z " fill="#F0EFE8" transform="translate(192,71)"/>
<path d="M0 0 C2 3.75 2 3.75 2 6 C2.99 6.33 3.98 6.66 5 7 C4.67 8.65 4.34 10.3 4 12 C4.66 12 5.32 12 6 12 C6.33 13.98 6.66 15.96 7 18 C5.5 16.625 5.5 16.625 4 15 C4 14.34 4 13.68 4 13 C3.34 13 2.68 13 2 13 C-0.28571429 4.57142857 -0.28571429 4.57142857 0 0 Z " fill="#F4AF3D" transform="translate(211,657)"/>
<path d="M0 0 C2.10696905 0.42379834 4.21053527 0.8645403 6.3125 1.3125 C7.48425781 1.55613281 8.65601563 1.79976562 9.86328125 2.05078125 C12.87775891 2.96300799 14.19861078 3.47025124 16 6 C16 6.66 16 7.32 16 8 C9.98482543 6.43082402 4.91598962 4.88104443 0 1 C0 0.67 0 0.34 0 0 Z " fill="#F5B344" transform="translate(430,557)"/>
<path d="M0 0 C0.66 0.33 1.32 0.66 2 1 C-0.3391573 3.85897003 -2.60080255 6.61189137 -5.25 9.1875 C-7.23329649 10.98079696 -7.23329649 10.98079696 -8 14 C-8.66 14 -9.32 14 -10 14 C-10.33 14.99 -10.66 15.98 -11 17 C-11 15.35 -11 13.7 -11 12 C-10.34 12 -9.68 12 -9 12 C-9 10.68 -9 9.36 -9 8 C-8.34 8 -7.68 8 -7 8 C-7 7.34 -7 6.68 -7 6 C-6.401875 5.7525 -5.80375 5.505 -5.1875 5.25 C-2.71352479 3.83629988 -1.56629745 2.34944617 0 0 Z " fill="#FEECBD" transform="translate(226,197)"/>
<path d="M0 0 C0.66 0.33 1.32 0.66 2 1 C0.88200014 2.33920838 -0.24461897 3.67122556 -1.375 5 C-2.00148438 5.7425 -2.62796875 6.485 -3.2734375 7.25 C-4.12808594 8.11625 -4.12808594 8.11625 -5 9 C-5.66 9 -6.32 9 -7 9 C-7 9.99 -7 10.98 -7 12 C-7.66 12 -8.32 12 -9 12 C-7.72210402 6.03648545 -4.66283606 3.51582826 0 0 Z " fill="#FDE7BA" transform="translate(328,472)"/>
<path d="M0 0 C0.99 0.33 1.98 0.66 3 1 C1.78192862 2.15762119 0.54998765 3.3006583 -0.6875 4.4375 C-1.71423828 5.39462891 -1.71423828 5.39462891 -2.76171875 6.37109375 C-5.22289422 8.16221098 -7.00816574 8.62798558 -10 9 C-8.37660195 7.29115995 -6.70680947 5.62553283 -5 4 C-4.34 4 -3.68 4 -3 4 C-2.67 3.01 -2.34 2.02 -2 1 C-1.34 0.67 -0.68 0.34 0 0 Z " fill="#E98A25" transform="translate(636,575)"/>
<path d="M0 0 C0 4.09939665 -1.52298101 5.78656995 -4 9 C-6.625 10.9375 -6.625 10.9375 -9 12 C-9.66 11.67 -10.32 11.34 -11 11 C-10.38125 10.7525 -9.7625 10.505 -9.125 10.25 C-6.55750184 8.73970696 -6.28184271 7.63908792 -5 5 C-3.37253306 3.29503463 -1.71108689 1.62102968 0 0 Z " fill="#FDE6B7" transform="translate(611,527)"/>
<path d="M0 0 C2.475 0.495 2.475 0.495 5 1 C5.33 3.64 5.66 6.28 6 9 C6.66 9 7.32 9 8 9 C7.67 10.32 7.34 11.64 7 13 C5.21178226 10.31767339 3.79857396 7.69711039 2.375 4.8125 C1.70597656 3.46091797 1.70597656 3.46091797 1.0234375 2.08203125 C0.68570312 1.39496094 0.34796875 0.70789063 0 0 Z " fill="#F4A51B" transform="translate(361,477)"/>
<path d="M0 0 C0.33 1.32 0.66 2.64 1 4 C0.01 4.66 -0.98 5.32 -2 6 C-2.33 6.845625 -2.66 7.69125 -3 8.5625 C-3.33 9.366875 -3.66 10.17125 -4 11 C-4.99 11.33 -5.98 11.66 -7 12 C-7 12.66 -7 13.32 -7 14 C-7.66 13.67 -8.32 13.34 -9 13 C-6.03 8.71 -3.06 4.42 0 0 Z " fill="#FDE4B1" transform="translate(628,505)"/>
<path d="M0 0 C4.96768758 1.55240237 9.17867057 4.51054781 13 8 C13 8.66 13 9.32 13 10 C7.98441189 8.74610297 5.96430928 7.19092002 3 3 C2.01769502 1.9826127 1.02530403 0.97403883 0 0 Z " fill="#F2B245" transform="translate(407,540)"/>
<path d="M0 0 C0.556875 0.598125 1.11375 1.19625 1.6875 1.8125 C3.91398916 4.07852072 3.91398916 4.07852072 6.625 5.5625 C9 7 9 7 11 10 C10.01 10 9.02 10 8 10 C8 9.34 8 8.68 8 8 C7.01 8.33 6.02 8.66 5 9 C2 5.25 2 5.25 2 3 C1.34 3 0.68 3 0 3 C0 2.01 0 1.02 0 0 Z " fill="#FADDA7" transform="translate(223,684)"/>
<path d="M0 0 C1.2065625 0.0309375 1.2065625 0.0309375 2.4375 0.0625 C2.4375 0.7225 2.4375 1.3825 2.4375 2.0625 C0.87633181 2.40201619 -0.68651338 2.73382544 -2.25 3.0625 C-3.55517578 3.3409375 -3.55517578 3.3409375 -4.88671875 3.625 C-7.49962964 4.05222047 -9.92063038 4.13866201 -12.5625 4.0625 C-11.9025 3.0725 -11.2425 2.0825 -10.5625 1.0625 C-7 0.9375 -7 0.9375 -3.5625 1.0625 C-2.5625 0.0625 -2.5625 0.0625 0 0 Z " fill="#F1AD3B" transform="translate(537.5625,570.9375)"/>
<path d="M0 0 C0.99 0.495 0.99 0.495 2 1 C2 2.32 2 3.64 2 5 C2.66 5 3.32 5 4 5 C4 5.66 4 6.32 4 7 C4.66 7 5.32 7 6 7 C6.33 9.31 6.66 11.62 7 14 C6.34 14 5.68 14 5 14 C4.15973604 12.23244474 3.32801278 10.46082737 2.5 8.6875 C2.0359375 7.70136719 1.571875 6.71523438 1.09375 5.69921875 C0 3 0 3 0 0 Z " fill="#FCDFB0" transform="translate(321,508)"/>
<path d="M0 0 C0.66 0.33 1.32 0.66 2 1 C-0.5061033 4.75915495 -1.81949803 4.72563254 -6.125 5.6875 C-7.76855469 6.06455078 -7.76855469 6.06455078 -9.4453125 6.44921875 C-10.70988281 6.72185547 -10.70988281 6.72185547 -12 7 C-11.67 6.34 -11.34 5.68 -11 5 C-7.9375 4.375 -7.9375 4.375 -5 4 C-5 3.34 -5 2.68 -5 2 C-2.625 0.9375 -2.625 0.9375 0 0 Z " fill="#EFAA5C" transform="translate(586,609)"/>
<path d="M0 0 C-4.35664057 2.90442705 -9.07905419 5.44937628 -14.4375 4.625 C-14.953125 4.41875 -15.46875 4.2125 -16 4 C-12.91190305 2.23537317 -11.76687864 2 -8 2 C-8 1.34 -8 0.68 -8 0 C-4.71303767 -0.79953138 -3.28976808 -1.09658936 0 0 Z " fill="#F0A735" transform="translate(560,565)"/>
<path d="M0 0 C2.96404505 2.80804268 5.44499019 5.18315774 7 9 C6.01 9 5.02 9 4 9 C0.8217901 5.7309841 0 4.67834007 0 0 Z " fill="#E9902F" transform="translate(340,543)"/>
<path d="M0 0 C0.66 0.33 1.32 0.66 2 1 C1.0479279 2.00596297 0.08812654 3.00461563 -0.875 4 C-1.40867187 4.556875 -1.94234375 5.11375 -2.4921875 5.6875 C-4 7 -4 7 -6 7 C-6 7.66 -6 8.32 -6 9 C-6.99 9 -7.98 9 -9 9 C-8.67 8.01 -8.34 7.02 -8 6 C-7.34 6 -6.68 6 -6 6 C-6 5.34 -6 4.68 -6 4 C-4.03852126 2.61061923 -2.03833424 1.2739589 0 0 Z " fill="#ED8807" transform="translate(628,379)"/>
<path d="M0 0 C2.08450717 0.2831556 4.16758367 0.57685669 6.25 0.875 C7.99023438 1.11863281 7.99023438 1.11863281 9.765625 1.3671875 C12.58193313 1.91820431 14.55217557 2.55796482 17 4 C14.36 4.33 11.72 4.66 9 5 C8.67 4.01 8.34 3.02 8 2 C7.05125 2.04125 6.1025 2.0825 5.125 2.125 C2 2 2 2 0 0 Z " fill="#F4B22B" transform="translate(742,183)"/>
<path d="M0 0 C2.09350689 3.4019487 2.17942163 6.05272412 2 10 C1.01 10 0.02 10 -1 10 C-1.02689216 8.52093108 -1.04634621 7.04172517 -1.0625 5.5625 C-1.07410156 4.73878906 -1.08570312 3.91507813 -1.09765625 3.06640625 C-1 1 -1 1 0 0 Z " fill="#F2F1EB" transform="translate(94,674)"/>
<path d="M0 0 C3.3 0.33 6.6 0.66 10 1 C10.33 1.99 10.66 2.98 11 4 C12.32 4 13.64 4 15 4 C14.67 4.66 14.34 5.32 14 6 C11.69 5.34 9.38 4.68 7 4 C7 3.34 7 2.68 7 2 C4.69 1.67 2.38 1.34 0 1 C0 0.67 0 0.34 0 0 Z " fill="#FBDFB1" transform="translate(433,616)"/>
<path d="M0 0 C0.66 1.32 1.32 2.64 2 4 C2.66 4 3.32 4 4 4 C5.6875 6.375 5.6875 6.375 7 9 C6.67 9.66 6.34 10.32 6 11 C1.9957657 7.50912907 0.37328935 5.35048061 0 0 Z " fill="#EB9435" transform="translate(333,532)"/>
<path d="M0 0 C0.66 0.33 1.32 0.66 2 1 C-1.27681643 3.75550472 -4.54173703 6.47280783 -8 9 C-8.66 8.67 -9.32 8.34 -10 8 C-8.89764064 7.03958829 -7.79303376 6.08175593 -6.6875 5.125 C-5.76517578 4.32449219 -5.76517578 4.32449219 -4.82421875 3.5078125 C-3 2 -3 2 0 0 Z " fill="#EE8A08" transform="translate(658,356)"/>
<path d="M0 0 C0 1.32 0 2.64 0 4 C-2.31 4 -4.62 4 -7 4 C-7.33 3.01 -7.66 2.02 -8 1 C-2.25 0 -2.25 0 0 0 Z " fill="#FEEFCD" transform="translate(752,180)"/>
<path d="M0 0 C1.45792884 -0.05399736 2.91642712 -0.09279177 4.375 -0.125 C5.18710937 -0.14820313 5.99921875 -0.17140625 6.8359375 -0.1953125 C9 0 9 0 11 2 C8 4 8 4 5.8125 3.625 C5.214375 3.41875 4.61625 3.2125 4 3 C4 2.34 4 1.68 4 1 C2.68 1.33 1.36 1.66 0 2 C0 1.34 0 0.68 0 0 Z " fill="#F2F1EC" transform="translate(764,59)"/>
<path d="M0 0 C0 0.66 0 1.32 0 2 C-6.26595745 6.12234043 -6.26595745 6.12234043 -9.625 5.5625 C-10.40875 5.376875 -11.1925 5.19125 -12 5 C-10.68 4.67 -9.36 4.34 -8 4 C-8 3.34 -8 2.68 -8 2 C-2.25 0 -2.25 0 0 0 Z " fill="#FAE0AD" transform="translate(765,698)"/>
<path d="M0 0 C-1.43011973 0.86646667 -2.86940619 1.71781829 -4.3125 2.5625 C-5.51326172 3.27599609 -5.51326172 3.27599609 -6.73828125 4.00390625 C-9 5 -9 5 -12 4 C-5.27272727 -1.63636364 -5.27272727 -1.63636364 0 0 Z " fill="#E78419" transform="translate(598,607)"/>
<path d="M0 0 C4.12751449 0.60698743 7.3321148 2.03810791 11 4 C10.34 4.66 9.68 5.32 9 6 C8.401875 5.67 7.80375 5.34 7.1875 5 C4.94613529 3.79212012 4.94613529 3.79212012 2 4 C2 3.34 2 2.68 2 2 C1.34 2 0.68 2 0 2 C0 1.34 0 0.68 0 0 Z " fill="#E68217" transform="translate(408,606)"/>
<path d="M0 0 C-3.63 2.31 -7.26 4.62 -11 7 C-10.34 5.35 -9.68 3.7 -9 2 C-8.34 2 -7.68 2 -7 2 C-6.67 1.34 -6.34 0.68 -6 0 C-2.49056604 -1.24528302 -2.49056604 -1.24528302 0 0 Z " fill="#F2A51E" transform="translate(586,550)"/>
<path d="M0 0 C0.8125 1.6875 0.8125 1.6875 1 4 C-1.4375 6.75 -1.4375 6.75 -4 9 C-4.33 8.01 -4.66 7.02 -5 6 C-3.59554165 3.7363436 -1.8032087 1.9791315 0 0 Z " fill="#E78922" transform="translate(662,545)"/>
<path d="M0 0 C1.98 0 3.96 0 6 0 C2.25 3 2.25 3 0 3 C-0.28875 3.639375 -0.5775 4.27875 -0.875 4.9375 C-2 7 -2 7 -4 8 C-4 7.01 -4 6.02 -4 5 C-3.34 5 -2.68 5 -2 5 C-2 4.01 -2 3.02 -2 2 C-1.34 2 -0.68 2 0 2 C0 1.34 0 0.68 0 0 Z " fill="#F2A629" transform="translate(647,469)"/>
<path d="M0 0 C1.21236328 0.01353516 1.21236328 0.01353516 2.44921875 0.02734375 C3.37154297 0.04474609 3.37154297 0.04474609 4.3125 0.0625 C4.3125 0.3925 4.3125 0.7225 4.3125 1.0625 C2.0025 1.0625 -0.3075 1.0625 -2.6875 1.0625 C-2.6875 1.7225 -2.6875 2.3825 -2.6875 3.0625 C-5.6575 3.0625 -8.6275 3.0625 -11.6875 3.0625 C-7.42359692 0.93054846 -4.68024487 -0.06782964 0 0 Z " fill="#F4B22F" transform="translate(256.6875,183.9375)"/>
<path d="M0 0 C0.66 0 1.32 0 2 0 C1.67 2.64 1.34 5.28 1 8 C0.34 8 -0.32 8 -1 8 C-1.33 8.66 -1.66 9.32 -2 10 C-2.22036864 6.14354879 -1.60355101 3.50776784 0 0 Z " fill="#F5A825" transform="translate(789,665)"/>
<path d="M0 0 C0.66 0.33 1.32 0.66 2 1 C1.34 2.32 0.68 3.64 0 5 C-0.66 5 -1.32 5 -2 5 C-2.12375 5.639375 -2.2475 6.27875 -2.375 6.9375 C-2.58125 7.618125 -2.7875 8.29875 -3 9 C-3.99 9.495 -3.99 9.495 -5 10 C-5 9.01 -5 8.02 -5 7 C-4.34 7 -3.68 7 -3 7 C-3 5.35 -3 3.7 -3 2 C-2.01 2 -1.02 2 0 2 C0 1.34 0 0.68 0 0 Z " fill="#FCE1B5" transform="translate(674,524)"/>
<path d="M0 0 C0.99 0.33 1.98 0.66 3 1 C2.67 2.65 2.34 4.3 2 6 C1.01 6.33 0.02 6.66 -1 7 C-1.04254356 5.00045254 -1.04080783 2.99958364 -1 1 C-0.67 0.67 -0.34 0.34 0 0 Z " fill="#F2F2EC" transform="translate(93,216)"/>
<path d="M0 0 C0.99 0.33 1.98 0.66 3 1 C3.33 4.96 3.66 8.92 4 13 C2.4005386 9.80107719 1.57404764 7.64537424 0.875 4.25 C0.70742188 3.45078125 0.53984375 2.6515625 0.3671875 1.828125 C0.24601563 1.22484375 0.12484375 0.6215625 0 0 Z " fill="#FEE4AD" transform="translate(790,215)"/>
<path d="M0 0 C0.66 0.33 1.32 0.66 2 1 C1.04882866 2.1725131 0.08882991 3.33787015 -0.875 4.5 C-1.40867188 5.1496875 -1.94234375 5.799375 -2.4921875 6.46875 C-2.98976562 6.9740625 -3.48734375 7.479375 -4 8 C-4.66 8 -5.32 8 -6 8 C-5.65120368 4.74456771 -4.97866739 3.98126893 -2.4375 1.75 C-1.633125 1.1725 -0.82875 0.595 0 0 Z " fill="#F0EFEB" transform="translate(144,103)"/>
<path d="M0 0 C2 0 2 0 4.6875 2.25 C7 5 7 5 6.8125 7.3125 C6.4103125 8.1478125 6.4103125 8.1478125 6 9 C5.67 8.01 5.34 7.02 5 6 C4.01 5.67 3.02 5.34 2 5 C0.8125 2.4375 0.8125 2.4375 0 0 Z " fill="#F0A421" transform="translate(218,676)"/>
<path d="M0 0 C0.99 0.33 1.98 0.66 3 1 C2.67 2.98 2.34 4.96 2 7 C1.01 7 0.02 7 -1 7 C-0.67 4.69 -0.34 2.38 0 0 Z " fill="#F4F3EF" transform="translate(909,678)"/>
<path d="M0 0 C0.99 0.33 1.98 0.66 3 1 C-0.625 6.875 -0.625 6.875 -4 8 C-4 7.01 -4 6.02 -4 5 C-3.34 5 -2.68 5 -2 5 C-2 4.01 -2 3.02 -2 2 C-1.34 2 -0.68 2 0 2 C0 1.34 0 0.68 0 0 Z " fill="#FDE4BB" transform="translate(657,548)"/>
<path d="M0 0 C1.60031344 3.20062687 0.03173691 5.72271806 -1 9 C-1.99 9 -2.98 9 -4 9 C-2.80100302 5.9168649 -1.52299523 2.93720508 0 0 Z " fill="#FDE6B5" transform="translate(633,496)"/>
<path d="M0 0 C0.66 0.33 1.32 0.66 2 1 C-1.56430755 4.14985318 -4.40693504 6.5140084 -9 8 C-6.14723863 5.06799526 -3.34920216 2.35684596 0 0 Z " fill="#EE8A07" transform="translate(696,327)"/>
<path d="M0 0 C-0.33 0.99 -0.66 1.98 -1 3 C-4.3 3 -7.6 3 -11 3 C-11 2.67 -11 2.34 -11 2 C-7.17679443 0.57741188 -4.08718695 -0.24042276 0 0 Z " fill="#F1F0E9" transform="translate(239,59)"/>
<path d="M0 0 C3.2542015 2.83430453 4.5206753 4.68607774 5 9 C2.5 6.75 2.5 6.75 0 4 C0 2.68 0 1.36 0 0 Z " fill="#FDE5AD" transform="translate(362,480)"/>
<path d="M0 0 C0.66 0.33 1.32 0.66 2 1 C-0.80804268 3.96404505 -3.18315774 6.44499019 -7 8 C-5.50902342 4.2047869 -3.24299151 2.38957269 0 0 Z " fill="#ED8507" transform="translate(594,405)"/>
<path d="M0 0 C0 0.66 0 1.32 0 2 C-0.66 2 -1.32 2 -2 2 C-2.66 3.32 -3.32 4.64 -4 6 C-4.99 6 -5.98 6 -7 6 C-5.81636731 2.44910192 -3.99368042 0 0 0 Z " fill="#EF8608" transform="translate(780,264)"/>
<path d="M0 0 C0.33 0 0.66 0 1 0 C0.25 7.75 0.25 7.75 -2 10 C-2 7.36 -2 4.72 -2 2 C-1.34 2 -0.68 2 0 2 C0 1.34 0 0.68 0 0 Z " fill="#F2F1EC" transform="translate(95,203)"/>
<path d="M0 0 C-0.66 1.65 -1.32 3.3 -2 5 C-3.65 5 -5.3 5 -7 5 C-2.25 0 -2.25 0 0 0 Z " fill="#F8BD46" transform="translate(237,191)"/>
<path d="M0 0 C0.66 0.33 1.32 0.66 2 1 C0.02 1.99 0.02 1.99 -2 3 C-2 3.66 -2 4.32 -2 5 C-3.65 5.66 -5.3 6.32 -7 7 C-7 6.01 -7 5.02 -7 4 C-5.68 4 -4.36 4 -3 4 C-3 3.34 -3 2.68 -3 2 C-2.01 1.34 -1.02 0.68 0 0 Z " fill="#F1AF40" transform="translate(772,691)"/>
<path d="M0 0 C1.65 0 3.3 0 5 0 C5.99 1.98 6.98 3.96 8 6 C4.63408134 4.55746343 2.48952921 2.66735273 0 0 Z " fill="#FCE5BD" transform="translate(390,592)"/>
<path d="M0 0 C2.04119788 1.61594832 4.04072937 3.2856382 6 5 C6 5.66 6 6.32 6 7 C4.68 7 3.36 7 2 7 C1.34 4.69 0.68 2.38 0 0 Z " fill="#FCDEA5" transform="translate(387,520)"/>
<path d="M0 0 C0.98120464 3.05263664 0.98120464 4.94736336 0 8 C-0.99 8 -1.98 8 -3 8 C-2.37240135 5.07120629 -1.41377341 2.63904371 0 0 Z " fill="#FDE2B0" transform="translate(637,488)"/>
<path d="M0 0 C0.66 0.33 1.32 0.66 2 1 C1.01 1.66 0.02 2.32 -1 3 C-0.67 2.01 -0.34 1.02 0 0 Z M-3 3 C-2.34 3.33 -1.68 3.66 -1 4 C-2.65 5.32 -4.3 6.64 -6 8 C-6.66 7.67 -7.32 7.34 -8 7 C-6.35 5.68 -4.7 4.36 -3 3 Z " fill="#EE8B06" transform="translate(719,309)"/>
<path d="M0 0 C0.99 0 1.98 0 3 0 C3 0.66 3 1.32 3 2 C3.99 2.33 4.98 2.66 6 3 C6 3.66 6 4.32 6 5 C6.99 5.33 7.98 5.66 9 6 C8.01 6.495 8.01 6.495 7 7 C5.83040013 6.02433888 4.66438823 5.044375 3.5 4.0625 C2.8503125 3.51722656 2.200625 2.97195313 1.53125 2.41015625 C1.0259375 1.94480469 0.520625 1.47945313 0 1 C0 0.67 0 0.34 0 0 Z " fill="#FDB00B" transform="translate(269,296)"/>
<path d="M0 0 C0.33 0 0.66 0 1 0 C1 1.65 1 3.3 1 5 C-0.98 5.99 -0.98 5.99 -3 7 C-2.25 2.25 -2.25 2.25 0 0 Z " fill="#F2F1ED" transform="translate(109,153)"/>
<path d="M0 0 C0 0.66 0 1.32 0 2 C-2.64 2.99 -5.28 3.98 -8 5 C-8.33 4.34 -8.66 3.68 -9 3 C-8.01 3 -7.02 3 -6 3 C-6 2.34 -6 1.68 -6 1 C-3 0 -3 0 0 0 Z " fill="#EFEEE9" transform="translate(205,67)"/>
<path d="M0 0 C0.33 0 0.66 0 1 0 C1.36923077 6.52307692 1.36923077 6.52307692 -0.5 8.9375 C-0.995 9.288125 -1.49 9.63875 -2 10 C-1.125 2.25 -1.125 2.25 0 0 Z " fill="#FCDA9D" transform="translate(794,656)"/>
<path d="M0 0 C7.57142857 1.85714286 7.57142857 1.85714286 10 5 C6.05140217 4.4359146 3.29120954 3.2568294 0 1 C0 0.67 0 0.34 0 0 Z " fill="#E38624" transform="translate(419,611)"/>
<path d="M0 0 C0.66 0.33 1.32 0.66 2 1 C-0.64 2.65 -3.28 4.3 -6 6 C-6.66 5.34 -7.32 4.68 -8 4 C-6.35 3.67 -4.7 3.34 -3 3 C-3 2.34 -3 1.68 -3 1 C-2.01 0.67 -1.02 0.34 0 0 Z " fill="#FDDFA3" transform="translate(566,561)"/>
<path d="M0 0 C1.98 0.99 1.98 0.99 4 2 C4 3.32 4 4.64 4 6 C4.66 6 5.32 6 6 6 C5.67 6.99 5.34 7.98 5 9 C5 8.34 5 7.68 5 7 C4.34 7 3.68 7 3 7 C2.01 4.69 1.02 2.38 0 0 Z " fill="#FDE8C2" transform="translate(328,523)"/>
<path d="M0 0 C0.66 0.33 1.32 0.66 2 1 C1.25 5.75 1.25 5.75 -1 8 C-1.04241723 5.66705225 -1.04092937 3.33297433 -1 1 C-0.67 0.67 -0.34 0.34 0 0 Z " fill="#F5F3F0" transform="translate(910,209)"/>
<path d="M0 0 C1.32 0.33 2.64 0.66 4 1 C1.69 2.65 -0.62 4.3 -3 6 C-3.33 5.34 -3.66 4.68 -4 4 C-3.67 3.34 -3.34 2.68 -3 2 C-2.01 2 -1.02 2 0 2 C0 1.34 0 0.68 0 0 Z " fill="#FEF7D8" transform="translate(231,191)"/>
</svg>
